<svg width="255" height="226" viewBox="0 0 255 226" fill="none" xmlns="http://www.w3.org/2000/svg">
<rect width="255" height="226" fill="white"/>
<path d="M53.3586 178.704C53.3586 179.348 53.2566 179.934 53.0526 180.462C52.8486 180.99 52.5606 181.442 52.1886 181.818C51.8166 182.194 51.3686 182.486 50.8446 182.694C50.3246 182.898 49.7486 183 49.1166 183H45.9066V174.402H49.1166C49.7486 174.402 50.3246 174.506 50.8446 174.714C51.3686 174.918 51.8166 175.21 52.1886 175.59C52.5606 175.966 52.8486 176.418 53.0526 176.946C53.2566 177.474 53.3586 178.06 53.3586 178.704ZM52.1646 178.704C52.1646 178.176 52.0926 177.704 51.9486 177.288C51.8046 176.872 51.6006 176.52 51.3366 176.232C51.0726 175.944 50.7526 175.724 50.3766 175.572C50.0006 175.42 49.5806 175.344 49.1166 175.344H47.0706V182.058H49.1166C49.5806 182.058 50.0006 181.982 50.3766 181.83C50.7526 181.678 51.0726 181.46 51.3366 181.176C51.6006 180.888 51.8046 180.536 51.9486 180.12C52.0926 179.704 52.1646 179.232 52.1646 178.704ZM57.2635 176.826C57.7075 176.826 58.1075 176.9 58.4635 177.048C58.8195 177.196 59.1235 177.406 59.3755 177.678C59.6275 177.95 59.8195 178.28 59.9515 178.668C60.0875 179.052 60.1555 179.482 60.1555 179.958C60.1555 180.438 60.0875 180.87 59.9515 181.254C59.8195 181.638 59.6275 181.966 59.3755 182.238C59.1235 182.51 58.8195 182.72 58.4635 182.868C58.1075 183.012 57.7075 183.084 57.2635 183.084C56.8155 183.084 56.4115 183.012 56.0515 182.868C55.6955 182.72 55.3915 182.51 55.1395 182.238C54.8875 181.966 54.6935 181.638 54.5575 181.254C54.4255 180.87 54.3595 180.438 54.3595 179.958C54.3595 179.482 54.4255 179.052 54.5575 178.668C54.6935 178.28 54.8875 177.95 55.1395 177.678C55.3915 177.406 55.6955 177.196 56.0515 177.048C56.4115 176.9 56.8155 176.826 57.2635 176.826ZM57.2635 182.25C57.8635 182.25 58.3115 182.05 58.6075 181.65C58.9035 181.246 59.0515 180.684 59.0515 179.964C59.0515 179.24 58.9035 178.676 58.6075 178.272C58.3115 177.868 57.8635 177.666 57.2635 177.666C56.9595 177.666 56.6935 177.718 56.4655 177.822C56.2415 177.926 56.0535 178.076 55.9015 178.272C55.7535 178.468 55.6415 178.71 55.5655 178.998C55.4935 179.282 55.4575 179.604 55.4575 179.964C55.4575 180.684 55.6055 181.246 55.9015 181.65C56.2015 182.05 56.6555 182.25 57.2635 182.25ZM69.7983 176.922L67.8303 183H66.9843C66.8803 183 66.8083 182.932 66.7683 182.796L65.4243 178.674C65.3923 178.582 65.3663 178.49 65.3463 178.398C65.3263 178.302 65.3063 178.208 65.2863 178.116C65.2663 178.208 65.2463 178.302 65.2263 178.398C65.2063 178.49 65.1803 178.584 65.1483 178.68L63.7803 182.796C63.7443 182.932 63.6643 183 63.5403 183H62.7363L60.7683 176.922H61.6083C61.6923 176.922 61.7623 176.944 61.8183 176.988C61.8783 177.032 61.9183 177.084 61.9383 177.144L63.1023 181.056C63.1703 181.344 63.2243 181.616 63.2643 181.872C63.3003 181.74 63.3363 181.606 63.3723 181.47C63.4123 181.334 63.4543 181.196 63.4983 181.056L64.7823 177.12C64.8023 177.06 64.8363 177.01 64.8843 176.97C64.9363 176.93 64.9983 176.91 65.0703 176.91H65.5383C65.6183 176.91 65.6843 176.93 65.7363 176.97C65.7883 177.01 65.8243 177.06 65.8443 177.12L67.0983 181.056C67.1423 181.196 67.1823 181.334 67.2183 181.47C67.2543 181.606 67.2883 181.74 67.3203 181.872C67.3403 181.74 67.3643 181.608 67.3923 181.476C67.4243 181.34 67.4583 181.2 67.4943 181.056L68.6823 177.144C68.7023 177.08 68.7403 177.028 68.7963 176.988C68.8523 176.944 68.9183 176.922 68.9943 176.922H69.7983ZM71.8462 177.804C71.9782 177.656 72.1182 177.522 72.2662 177.402C72.4142 177.282 72.5702 177.18 72.7342 177.096C72.9022 177.008 73.0782 176.942 73.2622 176.898C73.4502 176.85 73.6522 176.826 73.8682 176.826C74.2002 176.826 74.4922 176.882 74.7442 176.994C75.0002 177.102 75.2122 177.258 75.3802 177.462C75.5522 177.662 75.6822 177.904 75.7702 178.188C75.8582 178.472 75.9022 178.786 75.9022 179.13V183H74.8282V179.13C74.8282 178.67 74.7222 178.314 74.5102 178.062C74.3022 177.806 73.9842 177.678 73.5562 177.678C73.2402 177.678 72.9442 177.754 72.6682 177.906C72.3962 178.058 72.1442 178.264 71.9122 178.524V183H70.8382V176.922H71.4802C71.6322 176.922 71.7262 176.996 71.7622 177.144L71.8462 177.804ZM78.6336 174.162V183H77.5656V174.162H78.6336ZM82.9275 176.826C83.3715 176.826 83.7715 176.9 84.1275 177.048C84.4835 177.196 84.7875 177.406 85.0395 177.678C85.2915 177.95 85.4835 178.28 85.6155 178.668C85.7515 179.052 85.8195 179.482 85.8195 179.958C85.8195 180.438 85.7515 180.87 85.6155 181.254C85.4835 181.638 85.2915 181.966 85.0395 182.238C84.7875 182.51 84.4835 182.72 84.1275 182.868C83.7715 183.012 83.3715 183.084 82.9275 183.084C82.4795 183.084 82.0755 183.012 81.7155 182.868C81.3595 182.72 81.0555 182.51 80.8035 182.238C80.5515 181.966 80.3575 181.638 80.2215 181.254C80.0895 180.87 80.0235 180.438 80.0235 179.958C80.0235 179.482 80.0895 179.052 80.2215 178.668C80.3575 178.28 80.5515 177.95 80.8035 177.678C81.0555 177.406 81.3595 177.196 81.7155 177.048C82.0755 176.9 82.4795 176.826 82.9275 176.826ZM82.9275 182.25C83.5275 182.25 83.9755 182.05 84.2715 181.65C84.5675 181.246 84.7155 180.684 84.7155 179.964C84.7155 179.24 84.5675 178.676 84.2715 178.272C83.9755 177.868 83.5275 177.666 82.9275 177.666C82.6235 177.666 82.3575 177.718 82.1295 177.822C81.9055 177.926 81.7175 178.076 81.5655 178.272C81.4175 178.468 81.3055 178.71 81.2295 178.998C81.1575 179.282 81.1215 179.604 81.1215 179.964C81.1215 180.684 81.2695 181.246 81.5655 181.65C81.8655 182.05 82.3195 182.25 82.9275 182.25ZM90.4681 180.264C89.9761 180.28 89.5561 180.32 89.2081 180.384C88.8641 180.444 88.5821 180.524 88.3621 180.624C88.1461 180.724 87.9881 180.842 87.8881 180.978C87.7921 181.114 87.7441 181.266 87.7441 181.434C87.7441 181.594 87.7701 181.732 87.8221 181.848C87.8741 181.964 87.9441 182.06 88.0321 182.136C88.1241 182.208 88.2301 182.262 88.3501 182.298C88.4741 182.33 88.6061 182.346 88.7461 182.346C88.9341 182.346 89.1061 182.328 89.2621 182.292C89.4181 182.252 89.5641 182.196 89.7001 182.124C89.8401 182.052 89.9721 181.966 90.0961 181.866C90.2241 181.766 90.3481 181.652 90.4681 181.524V180.264ZM87.0181 177.78C87.3541 177.456 87.7161 177.214 88.1041 177.054C88.4921 176.894 88.9221 176.814 89.3941 176.814C89.7341 176.814 90.0361 176.87 90.3001 176.982C90.5641 177.094 90.7861 177.25 90.9661 177.45C91.1461 177.65 91.2821 177.892 91.3741 178.176C91.4661 178.46 91.5121 178.772 91.5121 179.112V183H91.0381C90.9341 183 90.8541 182.984 90.7981 182.952C90.7421 182.916 90.6981 182.848 90.6661 182.748L90.5461 182.172C90.3861 182.32 90.2301 182.452 90.0781 182.568C89.9261 182.68 89.7661 182.776 89.5981 182.856C89.4301 182.932 89.2501 182.99 89.0581 183.03C88.8701 183.074 88.6601 183.096 88.4281 183.096C88.1921 183.096 87.9701 183.064 87.7621 183C87.5541 182.932 87.3721 182.832 87.2161 182.7C87.0641 182.568 86.9421 182.402 86.8501 182.202C86.7621 181.998 86.7181 181.758 86.7181 181.482C86.7181 181.242 86.7841 181.012 86.9161 180.792C87.0481 180.568 87.2621 180.37 87.5581 180.198C87.8541 180.026 88.2401 179.886 88.7161 179.778C89.1921 179.666 89.7761 179.602 90.4681 179.586V179.112C90.4681 178.64 90.3661 178.284 90.1621 178.044C89.9581 177.8 89.6601 177.678 89.2681 177.678C89.0041 177.678 88.7821 177.712 88.6021 177.78C88.4261 177.844 88.2721 177.918 88.1401 178.002C88.0121 178.082 87.9001 178.156 87.8041 178.224C87.7121 178.288 87.6201 178.32 87.5281 178.32C87.4561 178.32 87.3941 178.302 87.3421 178.266C87.2901 178.226 87.2461 178.178 87.2101 178.122L87.0181 177.78ZM97.099 178.368C96.899 178.1 96.683 177.914 96.451 177.81C96.219 177.702 95.959 177.648 95.671 177.648C95.107 177.648 94.673 177.85 94.369 178.254C94.065 178.658 93.913 179.234 93.913 179.982C93.913 180.378 93.947 180.718 94.015 181.002C94.083 181.282 94.183 181.514 94.315 181.698C94.447 181.878 94.609 182.01 94.801 182.094C94.993 182.178 95.211 182.22 95.455 182.22C95.807 182.22 96.113 182.14 96.373 181.98C96.637 181.82 96.879 181.594 97.099 181.302V178.368ZM98.167 174.162V183H97.531C97.379 183 97.283 182.926 97.243 182.778L97.147 182.04C96.887 182.352 96.591 182.604 96.259 182.796C95.927 182.988 95.543 183.084 95.107 183.084C94.759 183.084 94.443 183.018 94.159 182.886C93.875 182.75 93.633 182.552 93.433 182.292C93.233 182.032 93.079 181.708 92.971 181.32C92.863 180.932 92.809 180.486 92.809 179.982C92.809 179.534 92.869 179.118 92.989 178.734C93.109 178.346 93.281 178.01 93.505 177.726C93.729 177.442 94.003 177.22 94.327 177.06C94.655 176.896 95.023 176.814 95.431 176.814C95.803 176.814 96.121 176.878 96.385 177.006C96.653 177.13 96.891 177.304 97.099 177.528V174.162H98.167ZM106.218 180.264C105.726 180.28 105.306 180.32 104.958 180.384C104.614 180.444 104.332 180.524 104.112 180.624C103.896 180.724 103.738 180.842 103.638 180.978C103.542 181.114 103.494 181.266 103.494 181.434C103.494 181.594 103.52 181.732 103.572 181.848C103.624 181.964 103.694 182.06 103.782 182.136C103.874 182.208 103.98 182.262 104.1 182.298C104.224 182.33 104.356 182.346 104.496 182.346C104.684 182.346 104.856 182.328 105.012 182.292C105.168 182.252 105.314 182.196 105.45 182.124C105.59 182.052 105.722 181.966 105.846 181.866C105.974 181.766 106.098 181.652 106.218 181.524V180.264ZM102.768 177.78C103.104 177.456 103.466 177.214 103.854 177.054C104.242 176.894 104.672 176.814 105.144 176.814C105.484 176.814 105.786 176.87 106.05 176.982C106.314 177.094 106.536 177.25 106.716 177.45C106.896 177.65 107.032 177.892 107.124 178.176C107.216 178.46 107.262 178.772 107.262 179.112V183H106.788C106.684 183 106.604 182.984 106.548 182.952C106.492 182.916 106.448 182.848 106.416 182.748L106.296 182.172C106.136 182.32 105.98 182.452 105.828 182.568C105.676 182.68 105.516 182.776 105.348 182.856C105.18 182.932 105 182.99 104.808 183.03C104.62 183.074 104.41 183.096 104.178 183.096C103.942 183.096 103.72 183.064 103.512 183C103.304 182.932 103.122 182.832 102.966 182.7C102.814 182.568 102.692 182.402 102.6 182.202C102.512 181.998 102.468 181.758 102.468 181.482C102.468 181.242 102.534 181.012 102.666 180.792C102.798 180.568 103.012 180.37 103.308 180.198C103.604 180.026 103.99 179.886 104.466 179.778C104.942 179.666 105.526 179.602 106.218 179.586V179.112C106.218 178.64 106.116 178.284 105.912 178.044C105.708 177.8 105.41 177.678 105.018 177.678C104.754 177.678 104.532 177.712 104.352 177.78C104.176 177.844 104.022 177.918 103.89 178.002C103.762 178.082 103.65 178.156 103.554 178.224C103.462 178.288 103.37 178.32 103.278 178.32C103.206 178.32 103.144 178.302 103.092 178.266C103.04 178.226 102.996 178.178 102.96 178.122L102.768 177.78ZM109.897 177.804C110.029 177.656 110.169 177.522 110.317 177.402C110.465 177.282 110.621 177.18 110.785 177.096C110.953 177.008 111.129 176.942 111.313 176.898C111.501 176.85 111.703 176.826 111.919 176.826C112.251 176.826 112.543 176.882 112.795 176.994C113.051 177.102 113.263 177.258 113.431 177.462C113.603 177.662 113.733 177.904 113.821 178.188C113.909 178.472 113.953 178.786 113.953 179.13V183H112.879V179.13C112.879 178.67 112.773 178.314 112.561 178.062C112.353 177.806 112.035 177.678 111.607 177.678C111.291 177.678 110.995 177.754 110.719 177.906C110.447 178.058 110.195 178.264 109.963 178.524V183H108.889V176.922H109.531C109.683 176.922 109.777 176.996 109.813 177.144L109.897 177.804ZM120.672 176.922L117.282 184.794C117.246 184.874 117.2 184.938 117.144 184.986C117.092 185.034 117.01 185.058 116.898 185.058H116.106L117.216 182.646L114.708 176.922H115.632C115.724 176.922 115.796 176.946 115.848 176.994C115.904 177.038 115.942 177.088 115.962 177.144L117.588 180.972C117.652 181.14 117.706 181.316 117.75 181.5C117.806 181.312 117.866 181.134 117.93 180.966L119.508 177.144C119.532 177.08 119.572 177.028 119.628 176.988C119.688 176.944 119.754 176.922 119.826 176.922H120.672ZM126.955 176.826C127.399 176.826 127.799 176.9 128.155 177.048C128.511 177.196 128.815 177.406 129.067 177.678C129.319 177.95 129.511 178.28 129.643 178.668C129.779 179.052 129.847 179.482 129.847 179.958C129.847 180.438 129.779 180.87 129.643 181.254C129.511 181.638 129.319 181.966 129.067 182.238C128.815 182.51 128.511 182.72 128.155 182.868C127.799 183.012 127.399 183.084 126.955 183.084C126.507 183.084 126.103 183.012 125.743 182.868C125.387 182.72 125.083 182.51 124.831 182.238C124.579 181.966 124.385 181.638 124.249 181.254C124.117 180.87 124.051 180.438 124.051 179.958C124.051 179.482 124.117 179.052 124.249 178.668C124.385 178.28 124.579 177.95 124.831 177.678C125.083 177.406 125.387 177.196 125.743 177.048C126.103 176.9 126.507 176.826 126.955 176.826ZM126.955 182.25C127.555 182.25 128.003 182.05 128.299 181.65C128.595 181.246 128.743 180.684 128.743 179.964C128.743 179.24 128.595 178.676 128.299 178.272C128.003 177.868 127.555 177.666 126.955 177.666C126.651 177.666 126.385 177.718 126.157 177.822C125.933 177.926 125.745 178.076 125.593 178.272C125.445 178.468 125.333 178.71 125.257 178.998C125.185 179.282 125.149 179.604 125.149 179.964C125.149 180.684 125.297 181.246 125.593 181.65C125.893 182.05 126.347 182.25 126.955 182.25ZM131.469 183V177.834L130.797 177.756C130.713 177.736 130.643 177.706 130.587 177.666C130.535 177.622 130.509 177.56 130.509 177.48V177.042H131.469V176.454C131.469 176.106 131.517 175.798 131.613 175.53C131.713 175.258 131.853 175.03 132.033 174.846C132.217 174.658 132.437 174.516 132.693 174.42C132.949 174.324 133.237 174.276 133.557 174.276C133.829 174.276 134.079 174.316 134.307 174.396L134.283 174.93C134.275 175.026 134.221 175.078 134.121 175.086C134.025 175.094 133.895 175.098 133.731 175.098C133.547 175.098 133.379 175.122 133.227 175.17C133.079 175.218 132.951 175.296 132.843 175.404C132.735 175.512 132.651 175.654 132.591 175.83C132.535 176.006 132.507 176.224 132.507 176.484V177.042H134.259V177.816H132.543V183H131.469ZM143.067 176.922L139.677 184.794C139.641 184.874 139.595 184.938 139.539 184.986C139.487 185.034 139.405 185.058 139.293 185.058H138.501L139.611 182.646L137.103 176.922H138.027C138.119 176.922 138.191 176.946 138.243 176.994C138.299 177.038 138.337 177.088 138.357 177.144L139.983 180.972C140.047 181.14 140.101 181.316 140.145 181.5C140.201 181.312 140.261 181.134 140.325 180.966L141.903 177.144C141.927 177.08 141.967 177.028 142.023 176.988C142.083 176.944 142.149 176.922 142.221 176.922H143.067ZM146.408 176.826C146.852 176.826 147.252 176.9 147.608 177.048C147.964 177.196 148.268 177.406 148.52 177.678C148.772 177.95 148.964 178.28 149.096 178.668C149.232 179.052 149.3 179.482 149.3 179.958C149.3 180.438 149.232 180.87 149.096 181.254C148.964 181.638 148.772 181.966 148.52 182.238C148.268 182.51 147.964 182.72 147.608 182.868C147.252 183.012 146.852 183.084 146.408 183.084C145.96 183.084 145.556 183.012 145.196 182.868C144.84 182.72 144.536 182.51 144.284 182.238C144.032 181.966 143.838 181.638 143.702 181.254C143.57 180.87 143.504 180.438 143.504 179.958C143.504 179.482 143.57 179.052 143.702 178.668C143.838 178.28 144.032 177.95 144.284 177.678C144.536 177.406 144.84 177.196 145.196 177.048C145.556 176.9 145.96 176.826 146.408 176.826ZM146.408 182.25C147.008 182.25 147.456 182.05 147.752 181.65C148.048 181.246 148.196 180.684 148.196 179.964C148.196 179.24 148.048 178.676 147.752 178.272C147.456 177.868 147.008 177.666 146.408 177.666C146.104 177.666 145.838 177.718 145.61 177.822C145.386 177.926 145.198 178.076 145.046 178.272C144.898 178.468 144.786 178.71 144.71 178.998C144.638 179.282 144.602 179.604 144.602 179.964C144.602 180.684 144.75 181.246 145.046 181.65C145.346 182.05 145.8 182.25 146.408 182.25ZM155.653 176.922V183H155.017C154.865 183 154.769 182.926 154.729 182.778L154.645 182.124C154.381 182.416 154.085 182.652 153.757 182.832C153.429 183.008 153.053 183.096 152.629 183.096C152.297 183.096 152.003 183.042 151.747 182.934C151.495 182.822 151.283 182.666 151.111 182.466C150.939 182.266 150.809 182.024 150.721 181.74C150.637 181.456 150.595 181.142 150.595 180.798V176.922H151.663V180.798C151.663 181.258 151.767 181.614 151.975 181.866C152.187 182.118 152.509 182.244 152.941 182.244C153.257 182.244 153.551 182.17 153.823 182.022C154.099 181.87 154.353 181.662 154.585 181.398V176.922H155.653ZM158.36 178.14C158.552 177.724 158.788 177.4 159.068 177.168C159.348 176.932 159.69 176.814 160.094 176.814C160.222 176.814 160.344 176.828 160.46 176.856C160.58 176.884 160.686 176.928 160.778 176.988L160.7 177.786C160.676 177.886 160.616 177.936 160.52 177.936C160.464 177.936 160.382 177.924 160.274 177.9C160.166 177.876 160.044 177.864 159.908 177.864C159.716 177.864 159.544 177.892 159.392 177.948C159.244 178.004 159.11 178.088 158.99 178.2C158.874 178.308 158.768 178.444 158.672 178.608C158.58 178.768 158.496 178.952 158.42 179.16V183H157.346V176.922H157.958C158.074 176.922 158.154 176.944 158.198 176.988C158.242 177.032 158.272 177.108 158.288 177.216L158.36 178.14ZM165.544 178.14C165.736 177.724 165.972 177.4 166.252 177.168C166.532 176.932 166.874 176.814 167.278 176.814C167.406 176.814 167.528 176.828 167.644 176.856C167.764 176.884 167.87 176.928 167.962 176.988L167.884 177.786C167.86 177.886 167.8 177.936 167.704 177.936C167.648 177.936 167.566 177.924 167.458 177.9C167.35 177.876 167.228 177.864 167.092 177.864C166.9 177.864 166.728 177.892 166.576 177.948C166.428 178.004 166.294 178.088 166.174 178.2C166.058 178.308 165.952 178.444 165.856 178.608C165.764 178.768 165.68 178.952 165.604 179.16V183H164.53V176.922H165.142C165.258 176.922 165.338 176.944 165.382 176.988C165.426 177.032 165.456 177.108 165.472 177.216L165.544 178.14ZM172.723 179.298C172.723 179.05 172.687 178.824 172.615 178.62C172.547 178.412 172.445 178.234 172.309 178.086C172.177 177.934 172.015 177.818 171.823 177.738C171.631 177.654 171.413 177.612 171.169 177.612C170.657 177.612 170.251 177.762 169.951 178.062C169.655 178.358 169.471 178.77 169.399 179.298H172.723ZM173.587 182.148C173.455 182.308 173.297 182.448 173.113 182.568C172.929 182.684 172.731 182.78 172.519 182.856C172.311 182.932 172.095 182.988 171.871 183.024C171.647 183.064 171.425 183.084 171.205 183.084C170.785 183.084 170.397 183.014 170.041 182.874C169.689 182.73 169.383 182.522 169.123 182.25C168.867 181.974 168.667 181.634 168.523 181.23C168.379 180.826 168.307 180.362 168.307 179.838C168.307 179.414 168.371 179.018 168.499 178.65C168.631 178.282 168.819 177.964 169.063 177.696C169.307 177.424 169.605 177.212 169.957 177.06C170.309 176.904 170.705 176.826 171.145 176.826C171.509 176.826 171.845 176.888 172.153 177.012C172.465 177.132 172.733 177.308 172.957 177.54C173.185 177.768 173.363 178.052 173.491 178.392C173.619 178.728 173.683 179.112 173.683 179.544C173.683 179.712 173.665 179.824 173.629 179.88C173.593 179.936 173.525 179.964 173.425 179.964H169.363C169.375 180.348 169.427 180.682 169.519 180.966C169.615 181.25 169.747 181.488 169.915 181.68C170.083 181.868 170.283 182.01 170.515 182.106C170.747 182.198 171.007 182.244 171.295 182.244C171.563 182.244 171.793 182.214 171.985 182.154C172.181 182.09 172.349 182.022 172.489 181.95C172.629 181.878 172.745 181.812 172.837 181.752C172.933 181.688 173.015 181.656 173.083 181.656C173.171 181.656 173.239 181.69 173.287 181.758L173.587 182.148ZM176.068 181.536C176.264 181.8 176.478 181.986 176.71 182.094C176.942 182.202 177.202 182.256 177.49 182.256C178.058 182.256 178.494 182.054 178.798 181.65C179.102 181.246 179.254 180.67 179.254 179.922C179.254 179.526 179.218 179.186 179.146 178.902C179.078 178.618 178.978 178.386 178.846 178.206C178.714 178.022 178.552 177.888 178.36 177.804C178.168 177.72 177.95 177.678 177.706 177.678C177.358 177.678 177.052 177.758 176.788 177.918C176.528 178.078 176.288 178.304 176.068 178.596V181.536ZM176.014 177.864C176.27 177.548 176.566 177.294 176.902 177.102C177.238 176.91 177.622 176.814 178.054 176.814C178.406 176.814 178.724 176.882 179.008 177.018C179.292 177.15 179.534 177.348 179.734 177.612C179.934 177.872 180.088 178.196 180.196 178.584C180.304 178.972 180.358 179.418 180.358 179.922C180.358 180.37 180.298 180.788 180.178 181.176C180.058 181.56 179.884 181.894 179.656 182.178C179.432 182.458 179.156 182.68 178.828 182.844C178.504 183.004 178.138 183.084 177.73 183.084C177.358 183.084 177.038 183.022 176.77 182.898C176.506 182.77 176.272 182.594 176.068 182.37V185.058H174.994V176.922H175.636C175.788 176.922 175.882 176.996 175.918 177.144L176.014 177.864ZM184.283 176.826C184.727 176.826 185.127 176.9 185.483 177.048C185.839 177.196 186.143 177.406 186.395 177.678C186.647 177.95 186.839 178.28 186.971 178.668C187.107 179.052 187.175 179.482 187.175 179.958C187.175 180.438 187.107 180.87 186.971 181.254C186.839 181.638 186.647 181.966 186.395 182.238C186.143 182.51 185.839 182.72 185.483 182.868C185.127 183.012 184.727 183.084 184.283 183.084C183.835 183.084 183.431 183.012 183.071 182.868C182.715 182.72 182.411 182.51 182.159 182.238C181.907 181.966 181.713 181.638 181.577 181.254C181.445 180.87 181.379 180.438 181.379 179.958C181.379 179.482 181.445 179.052 181.577 178.668C181.713 178.28 181.907 177.95 182.159 177.678C182.411 177.406 182.715 177.196 183.071 177.048C183.431 176.9 183.835 176.826 184.283 176.826ZM184.283 182.25C184.883 182.25 185.331 182.05 185.627 181.65C185.923 181.246 186.071 180.684 186.071 179.964C186.071 179.24 185.923 178.676 185.627 178.272C185.331 177.868 184.883 177.666 184.283 177.666C183.979 177.666 183.713 177.718 183.485 177.822C183.261 177.926 183.073 178.076 182.921 178.272C182.773 178.468 182.661 178.71 182.585 178.998C182.513 179.282 182.477 179.604 182.477 179.964C182.477 180.684 182.625 181.246 182.921 181.65C183.221 182.05 183.675 182.25 184.283 182.25ZM189.544 178.14C189.736 177.724 189.972 177.4 190.252 177.168C190.532 176.932 190.874 176.814 191.278 176.814C191.406 176.814 191.528 176.828 191.644 176.856C191.764 176.884 191.87 176.928 191.962 176.988L191.884 177.786C191.86 177.886 191.8 177.936 191.704 177.936C191.648 177.936 191.566 177.924 191.458 177.9C191.35 177.876 191.228 177.864 191.092 177.864C190.9 177.864 190.728 177.892 190.576 177.948C190.428 178.004 190.294 178.088 190.174 178.2C190.058 178.308 189.952 178.444 189.856 178.608C189.764 178.768 189.68 178.952 189.604 179.16V183H188.53V176.922H189.142C189.258 176.922 189.338 176.944 189.382 176.988C189.426 177.032 189.456 177.108 189.472 177.216L189.544 178.14ZM194.767 183.096C194.287 183.096 193.917 182.962 193.657 182.694C193.401 182.426 193.273 182.04 193.273 181.536V177.816H192.541C192.477 177.816 192.423 177.798 192.379 177.762C192.335 177.722 192.313 177.662 192.313 177.582V177.156L193.309 177.03L193.555 175.152C193.567 175.092 193.593 175.044 193.633 175.008C193.677 174.968 193.733 174.948 193.801 174.948H194.341V177.042H196.099V177.816H194.341V181.464C194.341 181.72 194.403 181.91 194.527 182.034C194.651 182.158 194.811 182.22 195.007 182.22C195.119 182.22 195.215 182.206 195.295 182.178C195.379 182.146 195.451 182.112 195.511 182.076C195.571 182.04 195.621 182.008 195.661 181.98C195.705 181.948 195.743 181.932 195.775 181.932C195.831 181.932 195.881 181.966 195.925 182.034L196.237 182.544C196.053 182.716 195.831 182.852 195.571 182.952C195.311 183.048 195.043 183.096 194.767 183.096ZM200.741 177.924C200.693 178.012 200.619 178.056 200.519 178.056C200.459 178.056 200.391 178.034 200.315 177.99C200.239 177.946 200.145 177.898 200.033 177.846C199.925 177.79 199.795 177.74 199.643 177.696C199.491 177.648 199.311 177.624 199.103 177.624C198.923 177.624 198.761 177.648 198.617 177.696C198.473 177.74 198.349 177.802 198.245 177.882C198.145 177.962 198.067 178.056 198.011 178.164C197.959 178.268 197.933 178.382 197.933 178.506C197.933 178.662 197.977 178.792 198.065 178.896C198.157 179 198.277 179.09 198.425 179.166C198.573 179.242 198.741 179.31 198.929 179.37C199.117 179.426 199.309 179.488 199.505 179.556C199.705 179.62 199.899 179.692 200.087 179.772C200.275 179.852 200.443 179.952 200.591 180.072C200.739 180.192 200.857 180.34 200.945 180.516C201.037 180.688 201.083 180.896 201.083 181.14C201.083 181.42 201.033 181.68 200.933 181.92C200.833 182.156 200.685 182.362 200.489 182.538C200.293 182.71 200.053 182.846 199.769 182.946C199.485 183.046 199.157 183.096 198.785 183.096C198.361 183.096 197.977 183.028 197.633 182.892C197.289 182.752 196.997 182.574 196.757 182.358L197.009 181.95C197.041 181.898 197.079 181.858 197.123 181.83C197.167 181.802 197.223 181.788 197.291 181.788C197.363 181.788 197.439 181.816 197.519 181.872C197.599 181.928 197.695 181.99 197.807 182.058C197.923 182.126 198.063 182.188 198.227 182.244C198.391 182.3 198.595 182.328 198.839 182.328C199.047 182.328 199.229 182.302 199.385 182.25C199.541 182.194 199.671 182.12 199.775 182.028C199.879 181.936 199.955 181.83 200.003 181.71C200.055 181.59 200.081 181.462 200.081 181.326C200.081 181.158 200.035 181.02 199.943 180.912C199.855 180.8 199.737 180.706 199.589 180.63C199.441 180.55 199.271 180.482 199.079 180.426C198.891 180.366 198.697 180.304 198.497 180.24C198.301 180.176 198.107 180.104 197.915 180.024C197.727 179.94 197.559 179.836 197.411 179.712C197.263 179.588 197.143 179.436 197.051 179.256C196.963 179.072 196.919 178.85 196.919 178.59C196.919 178.358 196.967 178.136 197.063 177.924C197.159 177.708 197.299 177.52 197.483 177.36C197.667 177.196 197.893 177.066 198.161 176.97C198.429 176.874 198.735 176.826 199.079 176.826C199.479 176.826 199.837 176.89 200.153 177.018C200.473 177.142 200.749 177.314 200.981 177.534L200.741 177.924ZM206.591 176.922V183H205.523V176.922H206.591ZM206.819 175.014C206.819 175.118 206.797 175.216 206.753 175.308C206.713 175.396 206.657 175.476 206.585 175.548C206.517 175.616 206.435 175.67 206.339 175.71C206.247 175.75 206.149 175.77 206.045 175.77C205.941 175.77 205.843 175.75 205.751 175.71C205.663 175.67 205.585 175.616 205.517 175.548C205.449 175.476 205.395 175.396 205.355 175.308C205.315 175.216 205.295 175.118 205.295 175.014C205.295 174.91 205.315 174.812 205.355 174.72C205.395 174.624 205.449 174.542 205.517 174.474C205.585 174.402 205.663 174.346 205.751 174.306C205.843 174.266 205.941 174.246 206.045 174.246C206.149 174.246 206.247 174.266 206.339 174.306C206.435 174.346 206.517 174.402 206.585 174.474C206.657 174.542 206.713 174.624 206.753 174.72C206.797 174.812 206.819 174.91 206.819 175.014ZM209.354 177.804C209.486 177.656 209.626 177.522 209.774 177.402C209.922 177.282 210.078 177.18 210.242 177.096C210.41 177.008 210.586 176.942 210.77 176.898C210.958 176.85 211.16 176.826 211.376 176.826C211.708 176.826 212 176.882 212.252 176.994C212.508 177.102 212.72 177.258 212.888 177.462C213.06 177.662 213.19 177.904 213.278 178.188C213.366 178.472 213.41 178.786 213.41 179.13V183H212.336V179.13C212.336 178.67 212.23 178.314 212.018 178.062C211.81 177.806 211.492 177.678 211.064 177.678C210.748 177.678 210.452 177.754 210.176 177.906C209.904 178.058 209.652 178.264 209.42 178.524V183H208.346V176.922H208.988C209.14 176.922 209.234 176.996 209.27 177.144L209.354 177.804ZM102.562 192.86C102.894 192.86 103.186 192.816 103.438 192.728C103.694 192.64 103.908 192.518 104.08 192.362C104.256 192.202 104.388 192.012 104.476 191.792C104.564 191.572 104.608 191.33 104.608 191.066C104.608 190.518 104.438 190.09 104.098 189.782C103.762 189.474 103.25 189.32 102.562 189.32H101.182V192.86H102.562ZM102.562 188.402C103.106 188.402 103.578 188.466 103.978 188.594C104.382 188.718 104.716 188.896 104.98 189.128C105.244 189.36 105.44 189.64 105.568 189.968C105.7 190.296 105.766 190.662 105.766 191.066C105.766 191.466 105.696 191.832 105.556 192.164C105.416 192.496 105.21 192.782 104.938 193.022C104.67 193.262 104.336 193.45 103.936 193.586C103.54 193.718 103.082 193.784 102.562 193.784H101.182V197H100.024V188.402H102.562ZM114.683 192.704C114.683 193.348 114.581 193.934 114.377 194.462C114.173 194.99 113.885 195.442 113.513 195.818C113.141 196.194 112.693 196.486 112.169 196.694C111.649 196.898 111.073 197 110.441 197H107.231V188.402H110.441C111.073 188.402 111.649 188.506 112.169 188.714C112.693 188.918 113.141 189.21 113.513 189.59C113.885 189.966 114.173 190.418 114.377 190.946C114.581 191.474 114.683 192.06 114.683 192.704ZM113.489 192.704C113.489 192.176 113.417 191.704 113.273 191.288C113.129 190.872 112.925 190.52 112.661 190.232C112.397 189.944 112.077 189.724 111.701 189.572C111.325 189.42 110.905 189.344 110.441 189.344H108.395V196.058H110.441C110.905 196.058 111.325 195.982 111.701 195.83C112.077 195.678 112.397 195.46 112.661 195.176C112.925 194.888 113.129 194.536 113.273 194.12C113.417 193.704 113.489 193.232 113.489 192.704ZM117.524 189.35V192.356H121.058V193.304H117.524V197H116.36V188.402H121.658V189.35H117.524ZM126.078 197V191.834L125.406 191.756C125.322 191.736 125.252 191.706 125.196 191.666C125.144 191.622 125.118 191.56 125.118 191.48V191.042H126.078V190.454C126.078 190.106 126.126 189.798 126.222 189.53C126.322 189.258 126.462 189.03 126.642 188.846C126.826 188.658 127.046 188.516 127.302 188.42C127.558 188.324 127.846 188.276 128.166 188.276C128.438 188.276 128.688 188.316 128.916 188.396L128.892 188.93C128.884 189.026 128.83 189.078 128.73 189.086C128.634 189.094 128.504 189.098 128.34 189.098C128.156 189.098 127.988 189.122 127.836 189.17C127.688 189.218 127.56 189.296 127.452 189.404C127.344 189.512 127.26 189.654 127.2 189.83C127.144 190.006 127.116 190.224 127.116 190.484V191.042H128.868V191.816H127.152V197H126.078ZM132.252 190.826C132.696 190.826 133.096 190.9 133.452 191.048C133.808 191.196 134.112 191.406 134.364 191.678C134.616 191.95 134.808 192.28 134.94 192.668C135.076 193.052 135.144 193.482 135.144 193.958C135.144 194.438 135.076 194.87 134.94 195.254C134.808 195.638 134.616 195.966 134.364 196.238C134.112 196.51 133.808 196.72 133.452 196.868C133.096 197.012 132.696 197.084 132.252 197.084C131.804 197.084 131.4 197.012 131.04 196.868C130.684 196.72 130.38 196.51 130.128 196.238C129.876 195.966 129.682 195.638 129.546 195.254C129.414 194.87 129.348 194.438 129.348 193.958C129.348 193.482 129.414 193.052 129.546 192.668C129.682 192.28 129.876 191.95 130.128 191.678C130.38 191.406 130.684 191.196 131.04 191.048C131.4 190.9 131.804 190.826 132.252 190.826ZM132.252 196.25C132.852 196.25 133.3 196.05 133.596 195.65C133.892 195.246 134.04 194.684 134.04 193.964C134.04 193.24 133.892 192.676 133.596 192.272C133.3 191.868 132.852 191.666 132.252 191.666C131.948 191.666 131.682 191.718 131.454 191.822C131.23 191.926 131.042 192.076 130.89 192.272C130.742 192.468 130.63 192.71 130.554 192.998C130.482 193.282 130.446 193.604 130.446 193.964C130.446 194.684 130.594 195.246 130.89 195.65C131.19 196.05 131.644 196.25 132.252 196.25ZM137.512 192.14C137.704 191.724 137.94 191.4 138.22 191.168C138.5 190.932 138.842 190.814 139.246 190.814C139.374 190.814 139.496 190.828 139.612 190.856C139.732 190.884 139.838 190.928 139.93 190.988L139.852 191.786C139.828 191.886 139.768 191.936 139.672 191.936C139.616 191.936 139.534 191.924 139.426 191.9C139.318 191.876 139.196 191.864 139.06 191.864C138.868 191.864 138.696 191.892 138.544 191.948C138.396 192.004 138.262 192.088 138.142 192.2C138.026 192.308 137.92 192.444 137.824 192.608C137.732 192.768 137.648 192.952 137.572 193.16V197H136.498V190.922H137.11C137.226 190.922 137.306 190.944 137.35 190.988C137.394 191.032 137.424 191.108 137.44 191.216L137.512 192.14ZM140.869 197V190.922H141.511C141.663 190.922 141.757 190.996 141.793 191.144L141.871 191.768C142.095 191.492 142.347 191.266 142.627 191.09C142.907 190.914 143.231 190.826 143.599 190.826C144.007 190.826 144.337 190.94 144.589 191.168C144.845 191.396 145.029 191.704 145.141 192.092C145.229 191.872 145.341 191.682 145.477 191.522C145.617 191.362 145.773 191.23 145.945 191.126C146.117 191.022 146.299 190.946 146.491 190.898C146.687 190.85 146.885 190.826 147.085 190.826C147.405 190.826 147.689 190.878 147.937 190.982C148.189 191.082 148.401 191.23 148.573 191.426C148.749 191.622 148.883 191.864 148.975 192.152C149.067 192.436 149.113 192.762 149.113 193.13V197H148.039V193.13C148.039 192.654 147.935 192.294 147.727 192.05C147.519 191.802 147.219 191.678 146.827 191.678C146.651 191.678 146.483 191.71 146.323 191.774C146.167 191.834 146.029 191.924 145.909 192.044C145.789 192.164 145.693 192.316 145.621 192.5C145.553 192.68 145.519 192.89 145.519 193.13V197H144.445V193.13C144.445 192.642 144.347 192.278 144.151 192.038C143.955 191.798 143.669 191.678 143.293 191.678C143.029 191.678 142.785 191.75 142.561 191.894C142.337 192.034 142.131 192.226 141.943 192.47V197H140.869ZM154.031 194.264C153.539 194.28 153.119 194.32 152.771 194.384C152.427 194.444 152.145 194.524 151.925 194.624C151.709 194.724 151.551 194.842 151.451 194.978C151.355 195.114 151.307 195.266 151.307 195.434C151.307 195.594 151.333 195.732 151.385 195.848C151.437 195.964 151.507 196.06 151.595 196.136C151.687 196.208 151.793 196.262 151.913 196.298C152.037 196.33 152.169 196.346 152.309 196.346C152.497 196.346 152.669 196.328 152.825 196.292C152.981 196.252 153.127 196.196 153.263 196.124C153.403 196.052 153.535 195.966 153.659 195.866C153.787 195.766 153.911 195.652 154.031 195.524V194.264ZM150.581 191.78C150.917 191.456 151.279 191.214 151.667 191.054C152.055 190.894 152.485 190.814 152.957 190.814C153.297 190.814 153.599 190.87 153.863 190.982C154.127 191.094 154.349 191.25 154.529 191.45C154.709 191.65 154.845 191.892 154.937 192.176C155.029 192.46 155.075 192.772 155.075 193.112V197H154.601C154.497 197 154.417 196.984 154.361 196.952C154.305 196.916 154.261 196.848 154.229 196.748L154.109 196.172C153.949 196.32 153.793 196.452 153.641 196.568C153.489 196.68 153.329 196.776 153.161 196.856C152.993 196.932 152.813 196.99 152.621 197.03C152.433 197.074 152.223 197.096 151.991 197.096C151.755 197.096 151.533 197.064 151.325 197C151.117 196.932 150.935 196.832 150.779 196.7C150.627 196.568 150.505 196.402 150.413 196.202C150.325 195.998 150.281 195.758 150.281 195.482C150.281 195.242 150.347 195.012 150.479 194.792C150.611 194.568 150.825 194.37 151.121 194.198C151.417 194.026 151.803 193.886 152.279 193.778C152.755 193.666 153.339 193.602 154.031 193.586V193.112C154.031 192.64 153.929 192.284 153.725 192.044C153.521 191.8 153.223 191.678 152.831 191.678C152.567 191.678 152.345 191.712 152.165 191.78C151.989 191.844 151.835 191.918 151.703 192.002C151.575 192.082 151.463 192.156 151.367 192.224C151.275 192.288 151.183 192.32 151.091 192.32C151.019 192.32 150.957 192.302 150.905 192.266C150.853 192.226 150.809 192.178 150.773 192.122L150.581 191.78ZM158.485 197.096C158.005 197.096 157.635 196.962 157.375 196.694C157.119 196.426 156.991 196.04 156.991 195.536V191.816H156.259C156.195 191.816 156.141 191.798 156.097 191.762C156.053 191.722 156.031 191.662 156.031 191.582V191.156L157.027 191.03L157.273 189.152C157.285 189.092 157.311 189.044 157.351 189.008C157.395 188.968 157.451 188.948 157.519 188.948H158.059V191.042H159.817V191.816H158.059V195.464C158.059 195.72 158.121 195.91 158.245 196.034C158.369 196.158 158.529 196.22 158.725 196.22C158.837 196.22 158.933 196.206 159.013 196.178C159.097 196.146 159.169 196.112 159.229 196.076C159.289 196.04 159.339 196.008 159.379 195.98C159.423 195.948 159.461 195.932 159.493 195.932C159.549 195.932 159.599 195.966 159.643 196.034L159.955 196.544C159.771 196.716 159.549 196.852 159.289 196.952C159.029 197.048 158.761 197.096 158.485 197.096Z" fill="black"/>
<path d="M71.9378 150.529C72.3818 150.529 72.7688 150.475 73.0988 150.367C73.4288 150.253 73.7018 150.094 73.9178 149.89C74.1398 149.68 74.3048 149.428 74.4128 149.134C74.5208 148.834 74.5748 148.501 74.5748 148.135C74.5748 147.787 74.5208 147.472 74.4128 147.19C74.3048 146.908 74.1428 146.668 73.9268 146.47C73.7108 146.272 73.4378 146.122 73.1078 146.02C72.7778 145.912 72.3878 145.858 71.9378 145.858H70.1288V150.529H71.9378ZM71.9378 143.986C72.8078 143.986 73.5608 144.088 74.1968 144.292C74.8328 144.496 75.3578 144.781 75.7718 145.147C76.1858 145.513 76.4918 145.951 76.6898 146.461C76.8938 146.971 76.9958 147.529 76.9958 148.135C76.9958 148.765 76.8908 149.344 76.6808 149.872C76.4708 150.394 76.1558 150.844 75.7358 151.222C75.3158 151.6 74.7878 151.894 74.1518 152.104C73.5218 152.314 72.7838 152.419 71.9378 152.419H70.1288V157H67.7078V143.986H71.9378ZM90.4083 150.493C90.4083 151.447 90.2493 152.323 89.9313 153.121C89.6133 153.919 89.1663 154.606 88.5903 155.182C88.0143 155.758 87.3213 156.205 86.5113 156.523C85.7013 156.841 84.8013 157 83.8113 157H78.8523V143.986H83.8113C84.8013 143.986 85.7013 144.148 86.5113 144.472C87.3213 144.79 88.0143 145.237 88.5903 145.813C89.1663 146.383 89.6133 147.067 89.9313 147.865C90.2493 148.663 90.4083 149.539 90.4083 150.493ZM87.9243 150.493C87.9243 149.779 87.8283 149.14 87.6363 148.576C87.4503 148.006 87.1773 147.526 86.8173 147.136C86.4633 146.74 86.0313 146.437 85.5213 146.227C85.0173 146.017 84.4473 145.912 83.8113 145.912H81.2823V155.074H83.8113C84.4473 155.074 85.0173 154.969 85.5213 154.759C86.0313 154.549 86.4633 154.249 86.8173 153.859C87.1773 153.463 87.4503 152.983 87.6363 152.419C87.8283 151.849 87.9243 151.207 87.9243 150.493ZM94.9757 145.912V149.764H99.8537V151.699H94.9757V157H92.5457V143.986H100.754V145.912H94.9757ZM118.234 150.493C118.234 151.447 118.075 152.323 117.757 153.121C117.439 153.919 116.992 154.606 116.416 155.182C115.84 155.758 115.147 156.205 114.337 156.523C113.527 156.841 112.627 157 111.637 157H106.678V143.986H111.637C112.627 143.986 113.527 144.148 114.337 144.472C115.147 144.79 115.84 145.237 116.416 145.813C116.992 146.383 117.439 147.067 117.757 147.865C118.075 148.663 118.234 149.539 118.234 150.493ZM115.75 150.493C115.75 149.779 115.654 149.14 115.462 148.576C115.276 148.006 115.003 147.526 114.643 147.136C114.289 146.74 113.857 146.437 113.347 146.227C112.843 146.017 112.273 145.912 111.637 145.912H109.108V155.074H111.637C112.273 155.074 112.843 154.969 113.347 154.759C113.857 154.549 114.289 154.249 114.643 153.859C115.003 153.463 115.276 152.983 115.462 152.419C115.654 151.849 115.75 151.207 115.75 150.493ZM123.984 147.622C124.668 147.622 125.289 147.733 125.847 147.955C126.411 148.177 126.891 148.492 127.287 148.9C127.689 149.308 127.998 149.806 128.214 150.394C128.43 150.982 128.538 151.639 128.538 152.365C128.538 153.097 128.43 153.757 128.214 154.345C127.998 154.933 127.689 155.434 127.287 155.848C126.891 156.262 126.411 156.58 125.847 156.802C125.289 157.024 124.668 157.135 123.984 157.135C123.294 157.135 122.667 157.024 122.103 156.802C121.539 156.58 121.056 156.262 120.654 155.848C120.258 155.434 119.949 154.933 119.727 154.345C119.511 153.757 119.403 153.097 119.403 152.365C119.403 151.639 119.511 150.982 119.727 150.394C119.949 149.806 120.258 149.308 120.654 148.9C121.056 148.492 121.539 148.177 122.103 147.955C122.667 147.733 123.294 147.622 123.984 147.622ZM123.984 155.425C124.752 155.425 125.319 155.167 125.685 154.651C126.057 154.135 126.243 153.379 126.243 152.383C126.243 151.387 126.057 150.628 125.685 150.106C125.319 149.584 124.752 149.323 123.984 149.323C123.204 149.323 122.625 149.587 122.247 150.115C121.875 150.637 121.689 151.393 121.689 152.383C121.689 153.373 121.875 154.129 122.247 154.651C122.625 155.167 123.204 155.425 123.984 155.425ZM143.261 147.766L140.327 157H138.545C138.341 157 138.2 156.868 138.122 156.604L136.466 151.267C136.412 151.087 136.361 150.91 136.313 150.736C136.271 150.556 136.235 150.376 136.205 150.196C136.169 150.376 136.127 150.559 136.079 150.745C136.037 150.925 135.989 151.105 135.935 151.285L134.252 156.604C134.18 156.868 134.021 157 133.775 157H132.065L129.14 147.766H130.913C131.075 147.766 131.213 147.805 131.327 147.883C131.441 147.961 131.516 148.06 131.552 148.18L132.875 153.112C132.941 153.382 132.998 153.646 133.046 153.904C133.1 154.162 133.145 154.42 133.181 154.678C133.247 154.42 133.316 154.162 133.388 153.904C133.466 153.646 133.547 153.382 133.631 153.112L135.161 148.162C135.197 148.042 135.266 147.943 135.368 147.865C135.476 147.787 135.605 147.748 135.755 147.748H136.736C136.892 147.748 137.024 147.787 137.132 147.865C137.246 147.943 137.321 148.042 137.357 148.162L138.842 153.112C138.92 153.382 138.992 153.649 139.058 153.913C139.13 154.171 139.199 154.429 139.265 154.687C139.343 154.177 139.454 153.652 139.598 153.112L140.957 148.18C140.999 148.06 141.074 147.961 141.182 147.883C141.29 147.805 141.419 147.766 141.569 147.766H143.261ZM146.604 148.9C146.79 148.714 146.985 148.543 147.189 148.387C147.399 148.225 147.618 148.09 147.846 147.982C148.08 147.868 148.329 147.781 148.593 147.721C148.857 147.655 149.145 147.622 149.457 147.622C149.961 147.622 150.408 147.709 150.798 147.883C151.188 148.051 151.512 148.291 151.77 148.603C152.034 148.909 152.232 149.278 152.364 149.71C152.502 150.136 152.571 150.607 152.571 151.123V157H150.348V151.123C150.348 150.559 150.219 150.124 149.961 149.818C149.703 149.506 149.31 149.35 148.782 149.35C148.398 149.35 148.038 149.437 147.702 149.611C147.366 149.785 147.048 150.022 146.748 150.322V157H144.525V147.766H145.884C146.172 147.766 146.361 147.901 146.451 148.171L146.604 148.9ZM156.935 143.626V157H154.712V143.626H156.935ZM163.236 147.622C163.92 147.622 164.541 147.733 165.099 147.955C165.663 148.177 166.143 148.492 166.539 148.9C166.941 149.308 167.25 149.806 167.466 150.394C167.682 150.982 167.79 151.639 167.79 152.365C167.79 153.097 167.682 153.757 167.466 154.345C167.25 154.933 166.941 155.434 166.539 155.848C166.143 156.262 165.663 156.58 165.099 156.802C164.541 157.024 163.92 157.135 163.236 157.135C162.546 157.135 161.919 157.024 161.355 156.802C160.791 156.58 160.308 156.262 159.906 155.848C159.51 155.434 159.201 154.933 158.979 154.345C158.763 153.757 158.655 153.097 158.655 152.365C158.655 151.639 158.763 150.982 158.979 150.394C159.201 149.806 159.51 149.308 159.906 148.9C160.308 148.492 160.791 148.177 161.355 147.955C161.919 147.733 162.546 147.622 163.236 147.622ZM163.236 155.425C164.004 155.425 164.571 155.167 164.937 154.651C165.309 154.135 165.495 153.379 165.495 152.383C165.495 151.387 165.309 150.628 164.937 150.106C164.571 149.584 164.004 149.323 163.236 149.323C162.456 149.323 161.877 149.587 161.499 150.115C161.127 150.637 160.941 151.393 160.941 152.383C160.941 153.373 161.127 154.129 161.499 154.651C161.877 155.167 162.456 155.425 163.236 155.425ZM174.364 153.058C173.722 153.088 173.182 153.145 172.744 153.229C172.306 153.307 171.955 153.409 171.691 153.535C171.427 153.661 171.238 153.808 171.124 153.976C171.01 154.144 170.953 154.327 170.953 154.525C170.953 154.915 171.067 155.194 171.295 155.362C171.529 155.53 171.832 155.614 172.204 155.614C172.66 155.614 173.053 155.533 173.383 155.371C173.719 155.203 174.046 154.951 174.364 154.615V153.058ZM169.27 149.053C170.332 148.081 171.61 147.595 173.104 147.595C173.644 147.595 174.127 147.685 174.553 147.865C174.979 148.039 175.339 148.285 175.633 148.603C175.927 148.915 176.149 149.29 176.299 149.728C176.455 150.166 176.533 150.646 176.533 151.168V157H175.525C175.315 157 175.153 156.97 175.039 156.91C174.925 156.844 174.835 156.715 174.769 156.523L174.571 155.857C174.337 156.067 174.109 156.253 173.887 156.415C173.665 156.571 173.434 156.703 173.194 156.811C172.954 156.919 172.696 157 172.42 157.054C172.15 157.114 171.85 157.144 171.52 157.144C171.13 157.144 170.77 157.093 170.44 156.991C170.11 156.883 169.825 156.724 169.585 156.514C169.345 156.304 169.159 156.043 169.027 155.731C168.895 155.419 168.829 155.056 168.829 154.642C168.829 154.408 168.868 154.177 168.946 153.949C169.024 153.715 169.15 153.493 169.324 153.283C169.504 153.073 169.735 152.875 170.017 152.689C170.299 152.503 170.644 152.341 171.052 152.203C171.466 152.065 171.946 151.954 172.492 151.87C173.038 151.78 173.662 151.726 174.364 151.708V151.168C174.364 150.55 174.232 150.094 173.968 149.8C173.704 149.5 173.323 149.35 172.825 149.35C172.465 149.35 172.165 149.392 171.925 149.476C171.691 149.56 171.484 149.656 171.304 149.764C171.124 149.866 170.959 149.959 170.809 150.043C170.665 150.127 170.503 150.169 170.323 150.169C170.167 150.169 170.035 150.13 169.927 150.052C169.819 149.968 169.732 149.872 169.666 149.764L169.27 149.053ZM184.422 150.124C184.17 149.818 183.894 149.602 183.594 149.476C183.3 149.35 182.982 149.287 182.64 149.287C182.304 149.287 182.001 149.35 181.731 149.476C181.461 149.602 181.23 149.794 181.038 150.052C180.846 150.304 180.699 150.628 180.597 151.024C180.495 151.414 180.444 151.876 180.444 152.41C180.444 152.95 180.486 153.409 180.57 153.787C180.66 154.159 180.786 154.465 180.948 154.705C181.11 154.939 181.308 155.11 181.542 155.218C181.776 155.32 182.037 155.371 182.325 155.371C182.787 155.371 183.18 155.275 183.504 155.083C183.828 154.891 184.134 154.618 184.422 154.264V150.124ZM186.645 143.626V157H185.286C184.992 157 184.806 156.865 184.728 156.595L184.539 155.704C184.167 156.13 183.738 156.475 183.252 156.739C182.772 157.003 182.211 157.135 181.569 157.135C181.065 157.135 180.603 157.03 180.183 156.82C179.763 156.61 179.4 156.307 179.094 155.911C178.794 155.509 178.56 155.014 178.392 154.426C178.23 153.838 178.149 153.166 178.149 152.41C178.149 151.726 178.242 151.09 178.428 150.502C178.614 149.914 178.881 149.404 179.229 148.972C179.577 148.54 179.994 148.204 180.48 147.964C180.966 147.718 181.512 147.595 182.118 147.595C182.634 147.595 183.075 147.676 183.441 147.838C183.807 148 184.134 148.219 184.422 148.495V143.626H186.645Z" fill="#101010"/>
<path d="M116.723 96.6695C116.723 95.2157 115.713 94.3472 113.932 94.3472C113.205 94.3472 112.713 94.4179 112.455 94.4868V99.1564C112.761 99.2253 113.136 99.2502 113.651 99.2502C115.55 99.2502 116.723 98.2879 116.723 96.6695Z" fill="#ED4C5C"/>
<path d="M127.753 94.3931C126.956 94.3931 126.439 94.4638 126.133 94.5346V104.88C126.439 104.951 126.931 104.951 127.376 104.951C130.613 104.974 132.725 103.191 132.725 99.4147C132.75 96.1301 130.825 94.3931 127.753 94.3931Z" fill="#ED4C5C"/>
<path d="M148.886 88.3155H147.589V82.0581C147.588 82.0184 147.584 81.9787 147.578 81.9395C147.58 81.6878 147.491 81.4439 147.327 81.2527L136.915 69.3616L136.907 69.3539C136.775 69.2104 136.606 69.1053 136.419 69.0497L136.362 69.0306C136.282 69.0108 136.201 69.0005 136.119 69H110.529C109.36 69 108.411 69.9508 108.411 71.1177V88.3155H107.114C105.442 88.3155 104.088 89.6699 104.088 91.3419V107.082C104.088 108.752 105.444 110.108 107.114 110.108H108.411V120.884C108.411 122.051 109.36 123.002 110.529 123.002H145.471C146.638 123.002 147.589 122.051 147.589 120.884V110.108H148.886C150.558 110.108 151.912 108.752 151.912 107.082V91.3419C151.912 89.6699 150.556 88.3155 148.886 88.3155ZM110.529 71.1177H135.059V81.9529C135.059 82.5383 135.533 83.0108 136.119 83.0108H145.473V88.3155H110.529V71.1177ZM136.526 99.2961C136.526 102.322 135.424 104.411 133.896 105.701C132.232 107.084 129.699 107.742 126.602 107.742C124.748 107.742 123.436 107.623 122.542 107.509V91.977C123.856 91.7666 125.569 91.6499 127.376 91.6499C130.378 91.6499 132.325 92.1893 133.85 93.339C135.493 94.5576 136.526 96.505 136.526 99.2961ZM108.91 107.579V91.977C110.012 91.7895 111.562 91.6499 113.742 91.6499C115.948 91.6499 117.521 92.0726 118.575 92.9163C119.583 93.714 120.262 95.0282 120.262 96.5758C120.262 98.1254 119.747 99.4377 118.808 100.329C117.588 101.479 115.782 101.995 113.67 101.995C113.201 101.995 112.778 101.972 112.451 101.925V107.579H108.91ZM145.471 120.31H110.529V110.108H145.471V120.31ZM148.54 94.6992H142.462V98.3128H148.14V101.222H142.462V107.579H138.875V91.7666H148.54V94.6992Z" fill="#ED4C5C"/>
</svg>
