<svg width="255" height="226" viewBox="0 0 255 226" fill="none" xmlns="http://www.w3.org/2000/svg">
<rect width="255" height="226" fill="white"/>
<path d="M50.7714 179.808L49.4214 176.31C49.3814 176.206 49.3394 176.086 49.2954 175.95C49.2514 175.81 49.2094 175.662 49.1694 175.506C49.0854 175.83 48.9994 176.1 48.9114 176.316L47.5614 179.808H50.7714ZM53.1954 183H52.2954C52.1914 183 52.1074 182.974 52.0434 182.922C51.9794 182.87 51.9314 182.804 51.8994 182.724L51.0954 180.648H47.2374L46.4334 182.724C46.4094 182.796 46.3634 182.86 46.2954 182.916C46.2274 182.972 46.1434 183 46.0434 183H45.1434L48.5814 174.402H49.7574L53.1954 183ZM55.1551 174.162V183H54.0871V174.162H55.1551ZM57.991 174.162V183H56.923V174.162H57.991ZM67.7326 176.922L64.3426 184.794C64.3066 184.874 64.2606 184.938 64.2046 184.986C64.1526 185.034 64.0706 185.058 63.9586 185.058H63.1666L64.2766 182.646L61.7686 176.922H62.6926C62.7846 176.922 62.8566 176.946 62.9086 176.994C62.9646 177.038 63.0026 177.088 63.0226 177.144L64.6486 180.972C64.7126 181.14 64.7666 181.316 64.8106 181.5C64.8666 181.312 64.9266 181.134 64.9906 180.966L66.5686 177.144C66.5926 177.08 66.6326 177.028 66.6886 176.988C66.7486 176.944 66.8146 176.922 66.8866 176.922H67.7326ZM71.074 176.826C71.518 176.826 71.918 176.9 72.274 177.048C72.63 177.196 72.934 177.406 73.186 177.678C73.438 177.95 73.63 178.28 73.762 178.668C73.898 179.052 73.966 179.482 73.966 179.958C73.966 180.438 73.898 180.87 73.762 181.254C73.63 181.638 73.438 181.966 73.186 182.238C72.934 182.51 72.63 182.72 72.274 182.868C71.918 183.012 71.518 183.084 71.074 183.084C70.626 183.084 70.222 183.012 69.862 182.868C69.506 182.72 69.202 182.51 68.95 182.238C68.698 181.966 68.504 181.638 68.368 181.254C68.236 180.87 68.17 180.438 68.17 179.958C68.17 179.482 68.236 179.052 68.368 178.668C68.504 178.28 68.698 177.95 68.95 177.678C69.202 177.406 69.506 177.196 69.862 177.048C70.222 176.9 70.626 176.826 71.074 176.826ZM71.074 182.25C71.674 182.25 72.122 182.05 72.418 181.65C72.714 181.246 72.862 180.684 72.862 179.964C72.862 179.24 72.714 178.676 72.418 178.272C72.122 177.868 71.674 177.666 71.074 177.666C70.77 177.666 70.504 177.718 70.276 177.822C70.052 177.926 69.864 178.076 69.712 178.272C69.564 178.468 69.452 178.71 69.376 178.998C69.304 179.282 69.268 179.604 69.268 179.964C69.268 180.684 69.416 181.246 69.712 181.65C70.012 182.05 70.466 182.25 71.074 182.25ZM80.3186 176.922V183H79.6826C79.5306 183 79.4346 182.926 79.3946 182.778L79.3106 182.124C79.0466 182.416 78.7506 182.652 78.4226 182.832C78.0946 183.008 77.7186 183.096 77.2946 183.096C76.9626 183.096 76.6686 183.042 76.4126 182.934C76.1606 182.822 75.9486 182.666 75.7766 182.466C75.6046 182.266 75.4746 182.024 75.3866 181.74C75.3026 181.456 75.2606 181.142 75.2606 180.798V176.922H76.3286V180.798C76.3286 181.258 76.4326 181.614 76.6406 181.866C76.8526 182.118 77.1746 182.244 77.6066 182.244C77.9226 182.244 78.2166 182.17 78.4886 182.022C78.7646 181.87 79.0186 181.662 79.2506 181.398V176.922H80.3186ZM83.026 178.14C83.218 177.724 83.454 177.4 83.734 177.168C84.014 176.932 84.356 176.814 84.76 176.814C84.888 176.814 85.01 176.828 85.126 176.856C85.246 176.884 85.352 176.928 85.444 176.988L85.366 177.786C85.342 177.886 85.282 177.936 85.186 177.936C85.13 177.936 85.048 177.924 84.94 177.9C84.832 177.876 84.71 177.864 84.574 177.864C84.382 177.864 84.21 177.892 84.058 177.948C83.91 178.004 83.776 178.088 83.656 178.2C83.54 178.308 83.434 178.444 83.338 178.608C83.246 178.768 83.162 178.952 83.086 179.16V183H82.012V176.922H82.624C82.74 176.922 82.82 176.944 82.864 176.988C82.908 177.032 82.938 177.108 82.954 177.216L83.026 178.14ZM90.3236 176.922V183H89.2556V176.922H90.3236ZM90.5516 175.014C90.5516 175.118 90.5296 175.216 90.4856 175.308C90.4456 175.396 90.3896 175.476 90.3176 175.548C90.2496 175.616 90.1676 175.67 90.0716 175.71C89.9796 175.75 89.8816 175.77 89.7776 175.77C89.6736 175.77 89.5756 175.75 89.4836 175.71C89.3956 175.67 89.3176 175.616 89.2496 175.548C89.1816 175.476 89.1276 175.396 89.0876 175.308C89.0476 175.216 89.0276 175.118 89.0276 175.014C89.0276 174.91 89.0476 174.812 89.0876 174.72C89.1276 174.624 89.1816 174.542 89.2496 174.474C89.3176 174.402 89.3956 174.346 89.4836 174.306C89.5756 174.266 89.6736 174.246 89.7776 174.246C89.8816 174.246 89.9796 174.266 90.0716 174.306C90.1676 174.346 90.2496 174.402 90.3176 174.474C90.3896 174.542 90.4456 174.624 90.4856 174.72C90.5296 174.812 90.5516 174.91 90.5516 175.014ZM93.0864 177.804C93.2184 177.656 93.3584 177.522 93.5064 177.402C93.6544 177.282 93.8104 177.18 93.9744 177.096C94.1424 177.008 94.3184 176.942 94.5024 176.898C94.6904 176.85 94.8924 176.826 95.1084 176.826C95.4404 176.826 95.7324 176.882 95.9844 176.994C96.2404 177.102 96.4524 177.258 96.6204 177.462C96.7924 177.662 96.9224 177.904 97.0104 178.188C97.0984 178.472 97.1424 178.786 97.1424 179.13V183H96.0684V179.13C96.0684 178.67 95.9624 178.314 95.7504 178.062C95.5424 177.806 95.2244 177.678 94.7964 177.678C94.4804 177.678 94.1844 177.754 93.9084 177.906C93.6364 178.058 93.3844 178.264 93.1524 178.524V183H92.0784V176.922H92.7204C92.8724 176.922 92.9664 176.996 93.0024 177.144L93.0864 177.804ZM99.0721 183V177.834L98.4001 177.756C98.3161 177.736 98.2461 177.706 98.1901 177.666C98.1381 177.622 98.1121 177.56 98.1121 177.48V177.042H99.0721V176.454C99.0721 176.106 99.1201 175.798 99.2161 175.53C99.3161 175.258 99.4561 175.03 99.6361 174.846C99.8201 174.658 100.04 174.516 100.296 174.42C100.552 174.324 100.84 174.276 101.16 174.276C101.432 174.276 101.682 174.316 101.91 174.396L101.886 174.93C101.878 175.026 101.824 175.078 101.724 175.086C101.628 175.094 101.498 175.098 101.334 175.098C101.15 175.098 100.982 175.122 100.83 175.17C100.682 175.218 100.554 175.296 100.446 175.404C100.338 175.512 100.254 175.654 100.194 175.83C100.138 176.006 100.11 176.224 100.11 176.484V177.042H101.862V177.816H100.146V183H99.0721ZM105.246 176.826C105.69 176.826 106.09 176.9 106.446 177.048C106.802 177.196 107.106 177.406 107.358 177.678C107.61 177.95 107.802 178.28 107.934 178.668C108.07 179.052 108.138 179.482 108.138 179.958C108.138 180.438 108.07 180.87 107.934 181.254C107.802 181.638 107.61 181.966 107.358 182.238C107.106 182.51 106.802 182.72 106.446 182.868C106.09 183.012 105.69 183.084 105.246 183.084C104.798 183.084 104.394 183.012 104.034 182.868C103.678 182.72 103.374 182.51 103.122 182.238C102.87 181.966 102.676 181.638 102.54 181.254C102.408 180.87 102.342 180.438 102.342 179.958C102.342 179.482 102.408 179.052 102.54 178.668C102.676 178.28 102.87 177.95 103.122 177.678C103.374 177.406 103.678 177.196 104.034 177.048C104.394 176.9 104.798 176.826 105.246 176.826ZM105.246 182.25C105.846 182.25 106.294 182.05 106.59 181.65C106.886 181.246 107.034 180.684 107.034 179.964C107.034 179.24 106.886 178.676 106.59 178.272C106.294 177.868 105.846 177.666 105.246 177.666C104.942 177.666 104.676 177.718 104.448 177.822C104.224 177.926 104.036 178.076 103.884 178.272C103.736 178.468 103.624 178.71 103.548 178.998C103.476 179.282 103.44 179.604 103.44 179.964C103.44 180.684 103.588 181.246 103.884 181.65C104.184 182.05 104.638 182.25 105.246 182.25ZM110.506 178.14C110.698 177.724 110.934 177.4 111.214 177.168C111.494 176.932 111.836 176.814 112.24 176.814C112.368 176.814 112.49 176.828 112.606 176.856C112.726 176.884 112.832 176.928 112.924 176.988L112.846 177.786C112.822 177.886 112.762 177.936 112.666 177.936C112.61 177.936 112.528 177.924 112.42 177.9C112.312 177.876 112.19 177.864 112.054 177.864C111.862 177.864 111.69 177.892 111.538 177.948C111.39 178.004 111.256 178.088 111.136 178.2C111.02 178.308 110.914 178.444 110.818 178.608C110.726 178.768 110.642 178.952 110.566 179.16V183H109.492V176.922H110.104C110.22 176.922 110.3 176.944 110.344 176.988C110.388 177.032 110.418 177.108 110.434 177.216L110.506 178.14ZM113.864 183V176.922H114.506C114.658 176.922 114.752 176.996 114.788 177.144L114.866 177.768C115.09 177.492 115.342 177.266 115.622 177.09C115.902 176.914 116.226 176.826 116.594 176.826C117.002 176.826 117.332 176.94 117.584 177.168C117.84 177.396 118.024 177.704 118.136 178.092C118.224 177.872 118.336 177.682 118.472 177.522C118.612 177.362 118.768 177.23 118.94 177.126C119.112 177.022 119.294 176.946 119.486 176.898C119.682 176.85 119.88 176.826 120.08 176.826C120.4 176.826 120.684 176.878 120.932 176.982C121.184 177.082 121.396 177.23 121.568 177.426C121.744 177.622 121.878 177.864 121.97 178.152C122.062 178.436 122.108 178.762 122.108 179.13V183H121.034V179.13C121.034 178.654 120.93 178.294 120.722 178.05C120.514 177.802 120.214 177.678 119.822 177.678C119.646 177.678 119.478 177.71 119.318 177.774C119.162 177.834 119.024 177.924 118.904 178.044C118.784 178.164 118.688 178.316 118.616 178.5C118.548 178.68 118.514 178.89 118.514 179.13V183H117.44V179.13C117.44 178.642 117.342 178.278 117.146 178.038C116.95 177.798 116.664 177.678 116.288 177.678C116.024 177.678 115.78 177.75 115.556 177.894C115.332 178.034 115.126 178.226 114.938 178.47V183H113.864ZM127.025 180.264C126.533 180.28 126.113 180.32 125.765 180.384C125.421 180.444 125.139 180.524 124.919 180.624C124.703 180.724 124.545 180.842 124.445 180.978C124.349 181.114 124.301 181.266 124.301 181.434C124.301 181.594 124.327 181.732 124.379 181.848C124.431 181.964 124.501 182.06 124.589 182.136C124.681 182.208 124.787 182.262 124.907 182.298C125.031 182.33 125.163 182.346 125.303 182.346C125.491 182.346 125.663 182.328 125.819 182.292C125.975 182.252 126.121 182.196 126.257 182.124C126.397 182.052 126.529 181.966 126.653 181.866C126.781 181.766 126.905 181.652 127.025 181.524V180.264ZM123.575 177.78C123.911 177.456 124.273 177.214 124.661 177.054C125.049 176.894 125.479 176.814 125.951 176.814C126.291 176.814 126.593 176.87 126.857 176.982C127.121 177.094 127.343 177.25 127.523 177.45C127.703 177.65 127.839 177.892 127.931 178.176C128.023 178.46 128.069 178.772 128.069 179.112V183H127.595C127.491 183 127.411 182.984 127.355 182.952C127.299 182.916 127.255 182.848 127.223 182.748L127.103 182.172C126.943 182.32 126.787 182.452 126.635 182.568C126.483 182.68 126.323 182.776 126.155 182.856C125.987 182.932 125.807 182.99 125.615 183.03C125.427 183.074 125.217 183.096 124.985 183.096C124.749 183.096 124.527 183.064 124.319 183C124.111 182.932 123.929 182.832 123.773 182.7C123.621 182.568 123.499 182.402 123.407 182.202C123.319 181.998 123.275 181.758 123.275 181.482C123.275 181.242 123.341 181.012 123.473 180.792C123.605 180.568 123.819 180.37 124.115 180.198C124.411 180.026 124.797 179.886 125.273 179.778C125.749 179.666 126.333 179.602 127.025 179.586V179.112C127.025 178.64 126.923 178.284 126.719 178.044C126.515 177.8 126.217 177.678 125.825 177.678C125.561 177.678 125.339 177.712 125.159 177.78C124.983 177.844 124.829 177.918 124.697 178.002C124.569 178.082 124.457 178.156 124.361 178.224C124.269 178.288 124.177 178.32 124.085 178.32C124.013 178.32 123.951 178.302 123.899 178.266C123.847 178.226 123.803 178.178 123.767 178.122L123.575 177.78ZM135.254 183H134.186V177.816H131.054V181.464C131.054 181.72 131.116 181.91 131.24 182.034C131.364 182.158 131.524 182.22 131.72 182.22C131.832 182.22 131.928 182.206 132.008 182.178C132.092 182.146 132.164 182.112 132.224 182.076C132.284 182.04 132.334 182.008 132.374 181.98C132.418 181.948 132.456 181.932 132.488 181.932C132.544 181.932 132.594 181.966 132.638 182.034L132.95 182.544C132.766 182.716 132.544 182.852 132.284 182.952C132.024 183.048 131.756 183.096 131.48 183.096C131 183.096 130.63 182.962 130.37 182.694C130.114 182.426 129.986 182.04 129.986 181.536V177.816H129.254C129.19 177.816 129.136 177.798 129.092 177.762C129.048 177.722 129.026 177.662 129.026 177.582V177.156L130.022 177.024L130.268 175.152C130.28 175.092 130.306 175.044 130.346 175.008C130.39 174.968 130.446 174.948 130.514 174.948H131.054V177.042H135.254V183ZM135.518 174.972C135.518 175.076 135.496 175.174 135.452 175.266C135.412 175.354 135.356 175.432 135.284 175.5C135.216 175.568 135.136 175.622 135.044 175.662C134.952 175.702 134.854 175.722 134.75 175.722C134.646 175.722 134.548 175.702 134.456 175.662C134.368 175.622 134.29 175.568 134.222 175.5C134.154 175.432 134.1 175.354 134.06 175.266C134.02 175.174 134 175.076 134 174.972C134 174.868 134.02 174.77 134.06 174.678C134.1 174.582 134.154 174.5 134.222 174.432C134.29 174.36 134.368 174.304 134.456 174.264C134.548 174.224 134.646 174.204 134.75 174.204C134.854 174.204 134.952 174.224 135.044 174.264C135.136 174.304 135.216 174.36 135.284 174.432C135.356 174.5 135.412 174.582 135.452 174.678C135.496 174.77 135.518 174.868 135.518 174.972ZM139.57 176.826C140.014 176.826 140.414 176.9 140.77 177.048C141.126 177.196 141.43 177.406 141.682 177.678C141.934 177.95 142.126 178.28 142.258 178.668C142.394 179.052 142.462 179.482 142.462 179.958C142.462 180.438 142.394 180.87 142.258 181.254C142.126 181.638 141.934 181.966 141.682 182.238C141.43 182.51 141.126 182.72 140.77 182.868C140.414 183.012 140.014 183.084 139.57 183.084C139.122 183.084 138.718 183.012 138.358 182.868C138.002 182.72 137.698 182.51 137.446 182.238C137.194 181.966 137 181.638 136.864 181.254C136.732 180.87 136.666 180.438 136.666 179.958C136.666 179.482 136.732 179.052 136.864 178.668C137 178.28 137.194 177.95 137.446 177.678C137.698 177.406 138.002 177.196 138.358 177.048C138.718 176.9 139.122 176.826 139.57 176.826ZM139.57 182.25C140.17 182.25 140.618 182.05 140.914 181.65C141.21 181.246 141.358 180.684 141.358 179.964C141.358 179.24 141.21 178.676 140.914 178.272C140.618 177.868 140.17 177.666 139.57 177.666C139.266 177.666 139 177.718 138.772 177.822C138.548 177.926 138.36 178.076 138.208 178.272C138.06 178.468 137.948 178.71 137.872 178.998C137.8 179.282 137.764 179.604 137.764 179.964C137.764 180.684 137.912 181.246 138.208 181.65C138.508 182.05 138.962 182.25 139.57 182.25ZM144.825 177.804C144.957 177.656 145.097 177.522 145.245 177.402C145.393 177.282 145.549 177.18 145.713 177.096C145.881 177.008 146.057 176.942 146.241 176.898C146.429 176.85 146.631 176.826 146.847 176.826C147.179 176.826 147.471 176.882 147.723 176.994C147.979 177.102 148.191 177.258 148.359 177.462C148.531 177.662 148.661 177.904 148.749 178.188C148.837 178.472 148.881 178.786 148.881 179.13V183H147.807V179.13C147.807 178.67 147.701 178.314 147.489 178.062C147.281 177.806 146.963 177.678 146.535 177.678C146.219 177.678 145.923 177.754 145.647 177.906C145.375 178.058 145.123 178.264 144.891 178.524V183H143.817V176.922H144.459C144.611 176.922 144.705 176.996 144.741 177.144L144.825 177.804ZM154.706 176.922V183H153.638V176.922H154.706ZM154.934 175.014C154.934 175.118 154.912 175.216 154.868 175.308C154.828 175.396 154.772 175.476 154.7 175.548C154.632 175.616 154.55 175.67 154.454 175.71C154.362 175.75 154.264 175.77 154.16 175.77C154.056 175.77 153.958 175.75 153.866 175.71C153.778 175.67 153.7 175.616 153.632 175.548C153.564 175.476 153.51 175.396 153.47 175.308C153.43 175.216 153.41 175.118 153.41 175.014C153.41 174.91 153.43 174.812 153.47 174.72C153.51 174.624 153.564 174.542 153.632 174.474C153.7 174.402 153.778 174.346 153.866 174.306C153.958 174.266 154.056 174.246 154.16 174.246C154.264 174.246 154.362 174.266 154.454 174.306C154.55 174.346 154.632 174.402 154.7 174.474C154.772 174.542 154.828 174.624 154.868 174.72C154.912 174.812 154.934 174.91 154.934 175.014ZM160.001 177.924C159.953 178.012 159.879 178.056 159.779 178.056C159.719 178.056 159.651 178.034 159.575 177.99C159.499 177.946 159.405 177.898 159.293 177.846C159.185 177.79 159.055 177.74 158.903 177.696C158.751 177.648 158.571 177.624 158.363 177.624C158.183 177.624 158.021 177.648 157.877 177.696C157.733 177.74 157.609 177.802 157.505 177.882C157.405 177.962 157.327 178.056 157.271 178.164C157.219 178.268 157.193 178.382 157.193 178.506C157.193 178.662 157.237 178.792 157.325 178.896C157.417 179 157.537 179.09 157.685 179.166C157.833 179.242 158.001 179.31 158.189 179.37C158.377 179.426 158.569 179.488 158.765 179.556C158.965 179.62 159.159 179.692 159.347 179.772C159.535 179.852 159.703 179.952 159.851 180.072C159.999 180.192 160.117 180.34 160.205 180.516C160.297 180.688 160.343 180.896 160.343 181.14C160.343 181.42 160.293 181.68 160.193 181.92C160.093 182.156 159.945 182.362 159.749 182.538C159.553 182.71 159.313 182.846 159.029 182.946C158.745 183.046 158.417 183.096 158.045 183.096C157.621 183.096 157.237 183.028 156.893 182.892C156.549 182.752 156.257 182.574 156.017 182.358L156.269 181.95C156.301 181.898 156.339 181.858 156.383 181.83C156.427 181.802 156.483 181.788 156.551 181.788C156.623 181.788 156.699 181.816 156.779 181.872C156.859 181.928 156.955 181.99 157.067 182.058C157.183 182.126 157.323 182.188 157.487 182.244C157.651 182.3 157.855 182.328 158.099 182.328C158.307 182.328 158.489 182.302 158.645 182.25C158.801 182.194 158.931 182.12 159.035 182.028C159.139 181.936 159.215 181.83 159.263 181.71C159.315 181.59 159.341 181.462 159.341 181.326C159.341 181.158 159.295 181.02 159.203 180.912C159.115 180.8 158.997 180.706 158.849 180.63C158.701 180.55 158.531 180.482 158.339 180.426C158.151 180.366 157.957 180.304 157.757 180.24C157.561 180.176 157.367 180.104 157.175 180.024C156.987 179.94 156.819 179.836 156.671 179.712C156.523 179.588 156.403 179.436 156.311 179.256C156.223 179.072 156.179 178.85 156.179 178.59C156.179 178.358 156.227 178.136 156.323 177.924C156.419 177.708 156.559 177.52 156.743 177.36C156.927 177.196 157.153 177.066 157.421 176.97C157.689 176.874 157.995 176.826 158.339 176.826C158.739 176.826 159.097 176.89 159.413 177.018C159.733 177.142 160.009 177.314 160.241 177.534L160.001 177.924ZM168.263 177.924C168.215 178.012 168.141 178.056 168.041 178.056C167.981 178.056 167.913 178.034 167.837 177.99C167.761 177.946 167.667 177.898 167.555 177.846C167.447 177.79 167.317 177.74 167.165 177.696C167.013 177.648 166.833 177.624 166.625 177.624C166.445 177.624 166.283 177.648 166.139 177.696C165.995 177.74 165.871 177.802 165.767 177.882C165.667 177.962 165.589 178.056 165.533 178.164C165.481 178.268 165.455 178.382 165.455 178.506C165.455 178.662 165.499 178.792 165.587 178.896C165.679 179 165.799 179.09 165.947 179.166C166.095 179.242 166.263 179.31 166.451 179.37C166.639 179.426 166.831 179.488 167.027 179.556C167.227 179.62 167.421 179.692 167.609 179.772C167.797 179.852 167.965 179.952 168.113 180.072C168.261 180.192 168.379 180.34 168.467 180.516C168.559 180.688 168.605 180.896 168.605 181.14C168.605 181.42 168.555 181.68 168.455 181.92C168.355 182.156 168.207 182.362 168.011 182.538C167.815 182.71 167.575 182.846 167.291 182.946C167.007 183.046 166.679 183.096 166.307 183.096C165.883 183.096 165.499 183.028 165.155 182.892C164.811 182.752 164.519 182.574 164.279 182.358L164.531 181.95C164.563 181.898 164.601 181.858 164.645 181.83C164.689 181.802 164.745 181.788 164.813 181.788C164.885 181.788 164.961 181.816 165.041 181.872C165.121 181.928 165.217 181.99 165.329 182.058C165.445 182.126 165.585 182.188 165.749 182.244C165.913 182.3 166.117 182.328 166.361 182.328C166.569 182.328 166.751 182.302 166.907 182.25C167.063 182.194 167.193 182.12 167.297 182.028C167.401 181.936 167.477 181.83 167.525 181.71C167.577 181.59 167.603 181.462 167.603 181.326C167.603 181.158 167.557 181.02 167.465 180.912C167.377 180.8 167.259 180.706 167.111 180.63C166.963 180.55 166.793 180.482 166.601 180.426C166.413 180.366 166.219 180.304 166.019 180.24C165.823 180.176 165.629 180.104 165.437 180.024C165.249 179.94 165.081 179.836 164.933 179.712C164.785 179.588 164.665 179.436 164.573 179.256C164.485 179.072 164.441 178.85 164.441 178.59C164.441 178.358 164.489 178.136 164.585 177.924C164.681 177.708 164.821 177.52 165.005 177.36C165.189 177.196 165.415 177.066 165.683 176.97C165.951 176.874 166.257 176.826 166.601 176.826C167.001 176.826 167.359 176.89 167.675 177.018C167.995 177.142 168.271 177.314 168.503 177.534L168.263 177.924ZM171.78 183.096C171.3 183.096 170.93 182.962 170.67 182.694C170.414 182.426 170.286 182.04 170.286 181.536V177.816H169.554C169.49 177.816 169.436 177.798 169.392 177.762C169.348 177.722 169.326 177.662 169.326 177.582V177.156L170.322 177.03L170.568 175.152C170.58 175.092 170.606 175.044 170.646 175.008C170.69 174.968 170.746 174.948 170.814 174.948H171.354V177.042H173.112V177.816H171.354V181.464C171.354 181.72 171.416 181.91 171.54 182.034C171.664 182.158 171.824 182.22 172.02 182.22C172.132 182.22 172.228 182.206 172.308 182.178C172.392 182.146 172.464 182.112 172.524 182.076C172.584 182.04 172.634 182.008 172.674 181.98C172.718 181.948 172.756 181.932 172.788 181.932C172.844 181.932 172.894 181.966 172.938 182.034L173.25 182.544C173.066 182.716 172.844 182.852 172.584 182.952C172.324 183.048 172.056 183.096 171.78 183.096ZM176.742 176.826C177.186 176.826 177.586 176.9 177.942 177.048C178.298 177.196 178.602 177.406 178.854 177.678C179.106 177.95 179.298 178.28 179.43 178.668C179.566 179.052 179.634 179.482 179.634 179.958C179.634 180.438 179.566 180.87 179.43 181.254C179.298 181.638 179.106 181.966 178.854 182.238C178.602 182.51 178.298 182.72 177.942 182.868C177.586 183.012 177.186 183.084 176.742 183.084C176.294 183.084 175.89 183.012 175.53 182.868C175.174 182.72 174.87 182.51 174.618 182.238C174.366 181.966 174.172 181.638 174.036 181.254C173.904 180.87 173.838 180.438 173.838 179.958C173.838 179.482 173.904 179.052 174.036 178.668C174.172 178.28 174.366 177.95 174.618 177.678C174.87 177.406 175.174 177.196 175.53 177.048C175.89 176.9 176.294 176.826 176.742 176.826ZM176.742 182.25C177.342 182.25 177.79 182.05 178.086 181.65C178.382 181.246 178.53 180.684 178.53 179.964C178.53 179.24 178.382 178.676 178.086 178.272C177.79 177.868 177.342 177.666 176.742 177.666C176.438 177.666 176.172 177.718 175.944 177.822C175.72 177.926 175.532 178.076 175.38 178.272C175.232 178.468 175.12 178.71 175.044 178.998C174.972 179.282 174.936 179.604 174.936 179.964C174.936 180.684 175.084 181.246 175.38 181.65C175.68 182.05 176.134 182.25 176.742 182.25ZM182.003 178.14C182.195 177.724 182.431 177.4 182.711 177.168C182.991 176.932 183.333 176.814 183.737 176.814C183.865 176.814 183.987 176.828 184.103 176.856C184.223 176.884 184.329 176.928 184.421 176.988L184.343 177.786C184.319 177.886 184.259 177.936 184.163 177.936C184.107 177.936 184.025 177.924 183.917 177.9C183.809 177.876 183.687 177.864 183.551 177.864C183.359 177.864 183.187 177.892 183.035 177.948C182.887 178.004 182.753 178.088 182.633 178.2C182.517 178.308 182.411 178.444 182.315 178.608C182.223 178.768 182.139 178.952 182.063 179.16V183H180.989V176.922H181.601C181.717 176.922 181.797 176.944 181.841 176.988C181.885 177.032 181.915 177.108 181.931 177.216L182.003 178.14ZM189.182 179.298C189.182 179.05 189.146 178.824 189.074 178.62C189.006 178.412 188.904 178.234 188.768 178.086C188.636 177.934 188.474 177.818 188.282 177.738C188.09 177.654 187.872 177.612 187.628 177.612C187.116 177.612 186.71 177.762 186.41 178.062C186.114 178.358 185.93 178.77 185.858 179.298H189.182ZM190.046 182.148C189.914 182.308 189.756 182.448 189.572 182.568C189.388 182.684 189.19 182.78 188.978 182.856C188.77 182.932 188.554 182.988 188.33 183.024C188.106 183.064 187.884 183.084 187.664 183.084C187.244 183.084 186.856 183.014 186.5 182.874C186.148 182.73 185.842 182.522 185.582 182.25C185.326 181.974 185.126 181.634 184.982 181.23C184.838 180.826 184.766 180.362 184.766 179.838C184.766 179.414 184.83 179.018 184.958 178.65C185.09 178.282 185.278 177.964 185.522 177.696C185.766 177.424 186.064 177.212 186.416 177.06C186.768 176.904 187.164 176.826 187.604 176.826C187.968 176.826 188.304 176.888 188.612 177.012C188.924 177.132 189.192 177.308 189.416 177.54C189.644 177.768 189.822 178.052 189.95 178.392C190.078 178.728 190.142 179.112 190.142 179.544C190.142 179.712 190.124 179.824 190.088 179.88C190.052 179.936 189.984 179.964 189.884 179.964H185.822C185.834 180.348 185.886 180.682 185.978 180.966C186.074 181.25 186.206 181.488 186.374 181.68C186.542 181.868 186.742 182.01 186.974 182.106C187.206 182.198 187.466 182.244 187.754 182.244C188.022 182.244 188.252 182.214 188.444 182.154C188.64 182.09 188.808 182.022 188.948 181.95C189.088 181.878 189.204 181.812 189.296 181.752C189.392 181.688 189.474 181.656 189.542 181.656C189.63 181.656 189.698 181.69 189.746 181.758L190.046 182.148ZM195.413 178.368C195.213 178.1 194.997 177.914 194.765 177.81C194.533 177.702 194.273 177.648 193.985 177.648C193.421 177.648 192.987 177.85 192.683 178.254C192.379 178.658 192.227 179.234 192.227 179.982C192.227 180.378 192.261 180.718 192.329 181.002C192.397 181.282 192.497 181.514 192.629 181.698C192.761 181.878 192.923 182.01 193.115 182.094C193.307 182.178 193.525 182.22 193.769 182.22C194.121 182.22 194.427 182.14 194.687 181.98C194.951 181.82 195.193 181.594 195.413 181.302V178.368ZM196.481 174.162V183H195.845C195.693 183 195.597 182.926 195.557 182.778L195.461 182.04C195.201 182.352 194.905 182.604 194.573 182.796C194.241 182.988 193.857 183.084 193.421 183.084C193.073 183.084 192.757 183.018 192.473 182.886C192.189 182.75 191.947 182.552 191.747 182.292C191.547 182.032 191.393 181.708 191.285 181.32C191.177 180.932 191.123 180.486 191.123 179.982C191.123 179.534 191.183 179.118 191.303 178.734C191.423 178.346 191.595 178.01 191.819 177.726C192.043 177.442 192.317 177.22 192.641 177.06C192.969 176.896 193.337 176.814 193.745 176.814C194.117 176.814 194.435 176.878 194.699 177.006C194.967 177.13 195.205 177.304 195.413 177.528V174.162H196.481ZM203.801 176.826C204.245 176.826 204.645 176.9 205.001 177.048C205.357 177.196 205.661 177.406 205.913 177.678C206.165 177.95 206.357 178.28 206.489 178.668C206.625 179.052 206.693 179.482 206.693 179.958C206.693 180.438 206.625 180.87 206.489 181.254C206.357 181.638 206.165 181.966 205.913 182.238C205.661 182.51 205.357 182.72 205.001 182.868C204.645 183.012 204.245 183.084 203.801 183.084C203.353 183.084 202.949 183.012 202.589 182.868C202.233 182.72 201.929 182.51 201.677 182.238C201.425 181.966 201.231 181.638 201.095 181.254C200.963 180.87 200.897 180.438 200.897 179.958C200.897 179.482 200.963 179.052 201.095 178.668C201.231 178.28 201.425 177.95 201.677 177.678C201.929 177.406 202.233 177.196 202.589 177.048C202.949 176.9 203.353 176.826 203.801 176.826ZM203.801 182.25C204.401 182.25 204.849 182.05 205.145 181.65C205.441 181.246 205.589 180.684 205.589 179.964C205.589 179.24 205.441 178.676 205.145 178.272C204.849 177.868 204.401 177.666 203.801 177.666C203.497 177.666 203.231 177.718 203.003 177.822C202.779 177.926 202.591 178.076 202.439 178.272C202.291 178.468 202.179 178.71 202.103 178.998C202.031 179.282 201.995 179.604 201.995 179.964C201.995 180.684 202.143 181.246 202.439 181.65C202.739 182.05 203.193 182.25 203.801 182.25ZM209.055 177.804C209.187 177.656 209.327 177.522 209.475 177.402C209.623 177.282 209.779 177.18 209.943 177.096C210.111 177.008 210.287 176.942 210.471 176.898C210.659 176.85 210.861 176.826 211.077 176.826C211.409 176.826 211.701 176.882 211.953 176.994C212.209 177.102 212.421 177.258 212.589 177.462C212.761 177.662 212.891 177.904 212.979 178.188C213.067 178.472 213.111 178.786 213.111 179.13V183H212.037V179.13C212.037 178.67 211.931 178.314 211.719 178.062C211.511 177.806 211.193 177.678 210.765 177.678C210.449 177.678 210.153 177.754 209.877 177.906C209.605 178.058 209.353 178.264 209.121 178.524V183H208.047V176.922H208.689C208.841 176.922 208.935 176.996 208.971 177.144L209.055 177.804ZM80.3196 191.924C80.2716 192.012 80.1976 192.056 80.0976 192.056C80.0376 192.056 79.9696 192.034 79.8936 191.99C79.8176 191.946 79.7236 191.898 79.6116 191.846C79.5036 191.79 79.3736 191.74 79.2216 191.696C79.0696 191.648 78.8896 191.624 78.6816 191.624C78.5016 191.624 78.3396 191.648 78.1956 191.696C78.0516 191.74 77.9276 191.802 77.8236 191.882C77.7236 191.962 77.6456 192.056 77.5896 192.164C77.5376 192.268 77.5116 192.382 77.5116 192.506C77.5116 192.662 77.5556 192.792 77.6436 192.896C77.7356 193 77.8556 193.09 78.0036 193.166C78.1516 193.242 78.3196 193.31 78.5076 193.37C78.6956 193.426 78.8876 193.488 79.0836 193.556C79.2836 193.62 79.4776 193.692 79.6656 193.772C79.8536 193.852 80.0216 193.952 80.1696 194.072C80.3176 194.192 80.4356 194.34 80.5236 194.516C80.6156 194.688 80.6616 194.896 80.6616 195.14C80.6616 195.42 80.6116 195.68 80.5116 195.92C80.4116 196.156 80.2636 196.362 80.0676 196.538C79.8716 196.71 79.6316 196.846 79.3476 196.946C79.0636 197.046 78.7356 197.096 78.3636 197.096C77.9396 197.096 77.5556 197.028 77.2116 196.892C76.8676 196.752 76.5756 196.574 76.3356 196.358L76.5876 195.95C76.6196 195.898 76.6576 195.858 76.7016 195.83C76.7456 195.802 76.8016 195.788 76.8696 195.788C76.9416 195.788 77.0176 195.816 77.0976 195.872C77.1776 195.928 77.2736 195.99 77.3856 196.058C77.5016 196.126 77.6416 196.188 77.8056 196.244C77.9696 196.3 78.1736 196.328 78.4176 196.328C78.6256 196.328 78.8076 196.302 78.9636 196.25C79.1196 196.194 79.2496 196.12 79.3536 196.028C79.4576 195.936 79.5336 195.83 79.5816 195.71C79.6336 195.59 79.6596 195.462 79.6596 195.326C79.6596 195.158 79.6136 195.02 79.5216 194.912C79.4336 194.8 79.3156 194.706 79.1676 194.63C79.0196 194.55 78.8496 194.482 78.6576 194.426C78.4696 194.366 78.2756 194.304 78.0756 194.24C77.8796 194.176 77.6856 194.104 77.4936 194.024C77.3056 193.94 77.1376 193.836 76.9896 193.712C76.8416 193.588 76.7216 193.436 76.6296 193.256C76.5416 193.072 76.4976 192.85 76.4976 192.59C76.4976 192.358 76.5456 192.136 76.6416 191.924C76.7376 191.708 76.8776 191.52 77.0616 191.36C77.2456 191.196 77.4716 191.066 77.7396 190.97C78.0076 190.874 78.3136 190.826 78.6576 190.826C79.0576 190.826 79.4156 190.89 79.7316 191.018C80.0516 191.142 80.3276 191.314 80.5596 191.534L80.3196 191.924ZM86.039 193.298C86.039 193.05 86.003 192.824 85.931 192.62C85.863 192.412 85.761 192.234 85.625 192.086C85.493 191.934 85.331 191.818 85.139 191.738C84.947 191.654 84.729 191.612 84.485 191.612C83.973 191.612 83.567 191.762 83.267 192.062C82.971 192.358 82.787 192.77 82.715 193.298H86.039ZM86.903 196.148C86.771 196.308 86.613 196.448 86.429 196.568C86.245 196.684 86.047 196.78 85.835 196.856C85.627 196.932 85.411 196.988 85.187 197.024C84.963 197.064 84.741 197.084 84.521 197.084C84.101 197.084 83.713 197.014 83.357 196.874C83.005 196.73 82.699 196.522 82.439 196.25C82.183 195.974 81.983 195.634 81.839 195.23C81.695 194.826 81.623 194.362 81.623 193.838C81.623 193.414 81.687 193.018 81.815 192.65C81.947 192.282 82.135 191.964 82.379 191.696C82.623 191.424 82.921 191.212 83.273 191.06C83.625 190.904 84.021 190.826 84.461 190.826C84.825 190.826 85.161 190.888 85.469 191.012C85.781 191.132 86.049 191.308 86.273 191.54C86.501 191.768 86.679 192.052 86.807 192.392C86.935 192.728 86.999 193.112 86.999 193.544C86.999 193.712 86.981 193.824 86.945 193.88C86.909 193.936 86.841 193.964 86.741 193.964H82.679C82.691 194.348 82.743 194.682 82.835 194.966C82.931 195.25 83.063 195.488 83.231 195.68C83.399 195.868 83.599 196.01 83.831 196.106C84.063 196.198 84.323 196.244 84.611 196.244C84.879 196.244 85.109 196.214 85.301 196.154C85.497 196.09 85.665 196.022 85.805 195.95C85.945 195.878 86.061 195.812 86.153 195.752C86.249 195.688 86.331 195.656 86.399 195.656C86.487 195.656 86.555 195.69 86.603 195.758L86.903 196.148ZM92.5408 192.002C92.5088 192.046 92.4768 192.08 92.4448 192.104C92.4128 192.128 92.3688 192.14 92.3128 192.14C92.2528 192.14 92.1868 192.116 92.1148 192.068C92.0428 192.016 91.9528 191.96 91.8448 191.9C91.7408 191.84 91.6108 191.786 91.4548 191.738C91.3028 191.686 91.1148 191.66 90.8908 191.66C90.5908 191.66 90.3268 191.714 90.0988 191.822C89.8708 191.926 89.6788 192.078 89.5228 192.278C89.3708 192.478 89.2548 192.72 89.1748 193.004C89.0988 193.288 89.0608 193.606 89.0608 193.958C89.0608 194.326 89.1028 194.654 89.1868 194.942C89.2708 195.226 89.3888 195.466 89.5408 195.662C89.6968 195.854 89.8828 196.002 90.0988 196.106C90.3188 196.206 90.5648 196.256 90.8368 196.256C91.0968 196.256 91.3108 196.226 91.4788 196.166C91.6468 196.102 91.7848 196.032 91.8928 195.956C92.0048 195.88 92.0968 195.812 92.1688 195.752C92.2448 195.688 92.3188 195.656 92.3908 195.656C92.4788 195.656 92.5468 195.69 92.5948 195.758L92.8948 196.148C92.7628 196.312 92.6128 196.452 92.4448 196.568C92.2768 196.684 92.0948 196.782 91.8988 196.862C91.7068 196.938 91.5048 196.994 91.2928 197.03C91.0808 197.066 90.8648 197.084 90.6448 197.084C90.2648 197.084 89.9108 197.014 89.5828 196.874C89.2588 196.734 88.9768 196.532 88.7368 196.268C88.4968 196 88.3088 195.672 88.1728 195.284C88.0368 194.896 87.9688 194.454 87.9688 193.958C87.9688 193.506 88.0308 193.088 88.1548 192.704C88.2828 192.32 88.4668 191.99 88.7068 191.714C88.9508 191.434 89.2488 191.216 89.6008 191.06C89.9568 190.904 90.3648 190.826 90.8248 190.826C91.2528 190.826 91.6288 190.896 91.9528 191.036C92.2808 191.172 92.5708 191.366 92.8228 191.618L92.5408 192.002ZM99.0393 190.922V197H98.4033C98.2513 197 98.1553 196.926 98.1153 196.778L98.0313 196.124C97.7673 196.416 97.4713 196.652 97.1433 196.832C96.8153 197.008 96.4393 197.096 96.0153 197.096C95.6833 197.096 95.3893 197.042 95.1333 196.934C94.8813 196.822 94.6693 196.666 94.4973 196.466C94.3253 196.266 94.1953 196.024 94.1073 195.74C94.0233 195.456 93.9813 195.142 93.9813 194.798V190.922H95.0493V194.798C95.0493 195.258 95.1533 195.614 95.3613 195.866C95.5733 196.118 95.8953 196.244 96.3273 196.244C96.6433 196.244 96.9373 196.17 97.2093 196.022C97.4853 195.87 97.7393 195.662 97.9713 195.398V190.922H99.0393ZM101.747 192.14C101.939 191.724 102.175 191.4 102.455 191.168C102.735 190.932 103.077 190.814 103.481 190.814C103.609 190.814 103.731 190.828 103.847 190.856C103.967 190.884 104.073 190.928 104.165 190.988L104.087 191.786C104.063 191.886 104.003 191.936 103.907 191.936C103.851 191.936 103.769 191.924 103.661 191.9C103.553 191.876 103.431 191.864 103.295 191.864C103.103 191.864 102.931 191.892 102.779 191.948C102.631 192.004 102.497 192.088 102.377 192.2C102.261 192.308 102.155 192.444 102.059 192.608C101.967 192.768 101.883 192.952 101.807 193.16V197H100.733V190.922H101.345C101.461 190.922 101.541 190.944 101.585 190.988C101.629 191.032 101.659 191.108 101.675 191.216L101.747 192.14ZM108.926 193.298C108.926 193.05 108.89 192.824 108.818 192.62C108.75 192.412 108.648 192.234 108.512 192.086C108.38 191.934 108.218 191.818 108.026 191.738C107.834 191.654 107.616 191.612 107.372 191.612C106.86 191.612 106.454 191.762 106.154 192.062C105.858 192.358 105.674 192.77 105.602 193.298H108.926ZM109.79 196.148C109.658 196.308 109.5 196.448 109.316 196.568C109.132 196.684 108.934 196.78 108.722 196.856C108.514 196.932 108.298 196.988 108.074 197.024C107.85 197.064 107.628 197.084 107.408 197.084C106.988 197.084 106.6 197.014 106.244 196.874C105.892 196.73 105.586 196.522 105.326 196.25C105.07 195.974 104.87 195.634 104.726 195.23C104.582 194.826 104.51 194.362 104.51 193.838C104.51 193.414 104.574 193.018 104.702 192.65C104.834 192.282 105.022 191.964 105.266 191.696C105.51 191.424 105.808 191.212 106.16 191.06C106.512 190.904 106.908 190.826 107.348 190.826C107.712 190.826 108.048 190.888 108.356 191.012C108.668 191.132 108.936 191.308 109.16 191.54C109.388 191.768 109.566 192.052 109.694 192.392C109.822 192.728 109.886 193.112 109.886 193.544C109.886 193.712 109.868 193.824 109.832 193.88C109.796 193.936 109.728 193.964 109.628 193.964H105.566C105.578 194.348 105.63 194.682 105.722 194.966C105.818 195.25 105.95 195.488 106.118 195.68C106.286 195.868 106.486 196.01 106.718 196.106C106.95 196.198 107.21 196.244 107.498 196.244C107.766 196.244 107.996 196.214 108.188 196.154C108.384 196.09 108.552 196.022 108.692 195.95C108.832 195.878 108.948 195.812 109.04 195.752C109.136 195.688 109.218 195.656 109.286 195.656C109.374 195.656 109.442 195.69 109.49 195.758L109.79 196.148ZM118.498 192.002C118.466 192.046 118.434 192.08 118.402 192.104C118.37 192.128 118.326 192.14 118.27 192.14C118.21 192.14 118.144 192.116 118.072 192.068C118 192.016 117.91 191.96 117.802 191.9C117.698 191.84 117.568 191.786 117.412 191.738C117.26 191.686 117.072 191.66 116.848 191.66C116.548 191.66 116.284 191.714 116.056 191.822C115.828 191.926 115.636 192.078 115.48 192.278C115.328 192.478 115.212 192.72 115.132 193.004C115.056 193.288 115.018 193.606 115.018 193.958C115.018 194.326 115.06 194.654 115.144 194.942C115.228 195.226 115.346 195.466 115.498 195.662C115.654 195.854 115.84 196.002 116.056 196.106C116.276 196.206 116.522 196.256 116.794 196.256C117.054 196.256 117.268 196.226 117.436 196.166C117.604 196.102 117.742 196.032 117.85 195.956C117.962 195.88 118.054 195.812 118.126 195.752C118.202 195.688 118.276 195.656 118.348 195.656C118.436 195.656 118.504 195.69 118.552 195.758L118.852 196.148C118.72 196.312 118.57 196.452 118.402 196.568C118.234 196.684 118.052 196.782 117.856 196.862C117.664 196.938 117.462 196.994 117.25 197.03C117.038 197.066 116.822 197.084 116.602 197.084C116.222 197.084 115.868 197.014 115.54 196.874C115.216 196.734 114.934 196.532 114.694 196.268C114.454 196 114.266 195.672 114.13 195.284C113.994 194.896 113.926 194.454 113.926 193.958C113.926 193.506 113.988 193.088 114.112 192.704C114.24 192.32 114.424 191.99 114.664 191.714C114.908 191.434 115.206 191.216 115.558 191.06C115.914 190.904 116.322 190.826 116.782 190.826C117.21 190.826 117.586 190.896 117.91 191.036C118.238 191.172 118.528 191.366 118.78 191.618L118.498 192.002ZM121.102 188.162V197H120.034V188.162H121.102ZM125.396 190.826C125.84 190.826 126.24 190.9 126.596 191.048C126.952 191.196 127.256 191.406 127.508 191.678C127.76 191.95 127.952 192.28 128.084 192.668C128.22 193.052 128.288 193.482 128.288 193.958C128.288 194.438 128.22 194.87 128.084 195.254C127.952 195.638 127.76 195.966 127.508 196.238C127.256 196.51 126.952 196.72 126.596 196.868C126.24 197.012 125.84 197.084 125.396 197.084C124.948 197.084 124.544 197.012 124.184 196.868C123.828 196.72 123.524 196.51 123.272 196.238C123.02 195.966 122.826 195.638 122.69 195.254C122.558 194.87 122.492 194.438 122.492 193.958C122.492 193.482 122.558 193.052 122.69 192.668C122.826 192.28 123.02 191.95 123.272 191.678C123.524 191.406 123.828 191.196 124.184 191.048C124.544 190.9 124.948 190.826 125.396 190.826ZM125.396 196.25C125.996 196.25 126.444 196.05 126.74 195.65C127.036 195.246 127.184 194.684 127.184 193.964C127.184 193.24 127.036 192.676 126.74 192.272C126.444 191.868 125.996 191.666 125.396 191.666C125.092 191.666 124.826 191.718 124.598 191.822C124.374 191.926 124.186 192.076 124.034 192.272C123.886 192.468 123.774 192.71 123.698 192.998C123.626 193.282 123.59 193.604 123.59 193.964C123.59 194.684 123.738 195.246 124.034 195.65C124.334 196.05 124.788 196.25 125.396 196.25ZM134.641 190.922V197H134.005C133.853 197 133.757 196.926 133.717 196.778L133.633 196.124C133.369 196.416 133.073 196.652 132.745 196.832C132.417 197.008 132.041 197.096 131.617 197.096C131.285 197.096 130.991 197.042 130.735 196.934C130.483 196.822 130.271 196.666 130.099 196.466C129.927 196.266 129.797 196.024 129.709 195.74C129.625 195.456 129.583 195.142 129.583 194.798V190.922H130.651V194.798C130.651 195.258 130.755 195.614 130.963 195.866C131.175 196.118 131.497 196.244 131.929 196.244C132.245 196.244 132.539 196.17 132.811 196.022C133.087 195.87 133.341 195.662 133.573 195.398V190.922H134.641ZM140.294 192.368C140.094 192.1 139.878 191.914 139.646 191.81C139.414 191.702 139.154 191.648 138.866 191.648C138.302 191.648 137.868 191.85 137.564 192.254C137.26 192.658 137.108 193.234 137.108 193.982C137.108 194.378 137.142 194.718 137.21 195.002C137.278 195.282 137.378 195.514 137.51 195.698C137.642 195.878 137.804 196.01 137.996 196.094C138.188 196.178 138.406 196.22 138.65 196.22C139.002 196.22 139.308 196.14 139.568 195.98C139.832 195.82 140.074 195.594 140.294 195.302V192.368ZM141.362 188.162V197H140.726C140.574 197 140.478 196.926 140.438 196.778L140.342 196.04C140.082 196.352 139.786 196.604 139.454 196.796C139.122 196.988 138.738 197.084 138.302 197.084C137.954 197.084 137.638 197.018 137.354 196.886C137.07 196.75 136.828 196.552 136.628 196.292C136.428 196.032 136.274 195.708 136.166 195.32C136.058 194.932 136.004 194.486 136.004 193.982C136.004 193.534 136.064 193.118 136.184 192.734C136.304 192.346 136.476 192.01 136.7 191.726C136.924 191.442 137.198 191.22 137.522 191.06C137.85 190.896 138.218 190.814 138.626 190.814C138.998 190.814 139.316 190.878 139.58 191.006C139.848 191.13 140.086 191.304 140.294 191.528V188.162H141.362ZM149.659 191.924C149.611 192.012 149.537 192.056 149.437 192.056C149.377 192.056 149.309 192.034 149.233 191.99C149.157 191.946 149.063 191.898 148.951 191.846C148.843 191.79 148.713 191.74 148.561 191.696C148.409 191.648 148.229 191.624 148.021 191.624C147.841 191.624 147.679 191.648 147.535 191.696C147.391 191.74 147.267 191.802 147.163 191.882C147.063 191.962 146.985 192.056 146.929 192.164C146.877 192.268 146.851 192.382 146.851 192.506C146.851 192.662 146.895 192.792 146.983 192.896C147.075 193 147.195 193.09 147.343 193.166C147.491 193.242 147.659 193.31 147.847 193.37C148.035 193.426 148.227 193.488 148.423 193.556C148.623 193.62 148.817 193.692 149.005 193.772C149.193 193.852 149.361 193.952 149.509 194.072C149.657 194.192 149.775 194.34 149.863 194.516C149.955 194.688 150.001 194.896 150.001 195.14C150.001 195.42 149.951 195.68 149.851 195.92C149.751 196.156 149.603 196.362 149.407 196.538C149.211 196.71 148.971 196.846 148.687 196.946C148.403 197.046 148.075 197.096 147.703 197.096C147.279 197.096 146.895 197.028 146.551 196.892C146.207 196.752 145.915 196.574 145.675 196.358L145.927 195.95C145.959 195.898 145.997 195.858 146.041 195.83C146.085 195.802 146.141 195.788 146.209 195.788C146.281 195.788 146.357 195.816 146.437 195.872C146.517 195.928 146.613 195.99 146.725 196.058C146.841 196.126 146.981 196.188 147.145 196.244C147.309 196.3 147.513 196.328 147.757 196.328C147.965 196.328 148.147 196.302 148.303 196.25C148.459 196.194 148.589 196.12 148.693 196.028C148.797 195.936 148.873 195.83 148.921 195.71C148.973 195.59 148.999 195.462 148.999 195.326C148.999 195.158 148.953 195.02 148.861 194.912C148.773 194.8 148.655 194.706 148.507 194.63C148.359 194.55 148.189 194.482 147.997 194.426C147.809 194.366 147.615 194.304 147.415 194.24C147.219 194.176 147.025 194.104 146.833 194.024C146.645 193.94 146.477 193.836 146.329 193.712C146.181 193.588 146.061 193.436 145.969 193.256C145.881 193.072 145.837 192.85 145.837 192.59C145.837 192.358 145.885 192.136 145.981 191.924C146.077 191.708 146.217 191.52 146.401 191.36C146.585 191.196 146.811 191.066 147.079 190.97C147.347 190.874 147.653 190.826 147.997 190.826C148.397 190.826 148.755 190.89 149.071 191.018C149.391 191.142 149.667 191.314 149.899 191.534L149.659 191.924ZM155.379 193.298C155.379 193.05 155.343 192.824 155.271 192.62C155.203 192.412 155.101 192.234 154.965 192.086C154.833 191.934 154.671 191.818 154.479 191.738C154.287 191.654 154.069 191.612 153.825 191.612C153.313 191.612 152.907 191.762 152.607 192.062C152.311 192.358 152.127 192.77 152.055 193.298H155.379ZM156.243 196.148C156.111 196.308 155.953 196.448 155.769 196.568C155.585 196.684 155.387 196.78 155.175 196.856C154.967 196.932 154.751 196.988 154.527 197.024C154.303 197.064 154.081 197.084 153.861 197.084C153.441 197.084 153.053 197.014 152.697 196.874C152.345 196.73 152.039 196.522 151.779 196.25C151.523 195.974 151.323 195.634 151.179 195.23C151.035 194.826 150.963 194.362 150.963 193.838C150.963 193.414 151.027 193.018 151.155 192.65C151.287 192.282 151.475 191.964 151.719 191.696C151.963 191.424 152.261 191.212 152.613 191.06C152.965 190.904 153.361 190.826 153.801 190.826C154.165 190.826 154.501 190.888 154.809 191.012C155.121 191.132 155.389 191.308 155.613 191.54C155.841 191.768 156.019 192.052 156.147 192.392C156.275 192.728 156.339 193.112 156.339 193.544C156.339 193.712 156.321 193.824 156.285 193.88C156.249 193.936 156.181 193.964 156.081 193.964H152.019C152.031 194.348 152.083 194.682 152.175 194.966C152.271 195.25 152.403 195.488 152.571 195.68C152.739 195.868 152.939 196.01 153.171 196.106C153.403 196.198 153.663 196.244 153.951 196.244C154.219 196.244 154.449 196.214 154.641 196.154C154.837 196.09 155.005 196.022 155.145 195.95C155.285 195.878 155.401 195.812 155.493 195.752C155.589 195.688 155.671 195.656 155.739 195.656C155.827 195.656 155.895 195.69 155.943 195.758L156.243 196.148ZM158.665 192.14C158.857 191.724 159.093 191.4 159.373 191.168C159.653 190.932 159.995 190.814 160.399 190.814C160.527 190.814 160.649 190.828 160.765 190.856C160.885 190.884 160.991 190.928 161.083 190.988L161.005 191.786C160.981 191.886 160.921 191.936 160.825 191.936C160.769 191.936 160.687 191.924 160.579 191.9C160.471 191.876 160.349 191.864 160.213 191.864C160.021 191.864 159.849 191.892 159.697 191.948C159.549 192.004 159.415 192.088 159.295 192.2C159.179 192.308 159.073 192.444 158.977 192.608C158.885 192.768 158.801 192.952 158.725 193.16V197H157.651V190.922H158.263C158.379 190.922 158.459 190.944 158.503 190.988C158.547 191.032 158.577 191.108 158.593 191.216L158.665 192.14ZM167.23 190.922L164.752 197H163.792L161.314 190.922H162.184C162.272 190.922 162.344 190.944 162.4 190.988C162.456 191.032 162.494 191.084 162.514 191.144L164.056 195.056C164.104 195.204 164.146 195.348 164.182 195.488C164.218 195.628 164.252 195.768 164.284 195.908C164.316 195.768 164.35 195.628 164.386 195.488C164.422 195.348 164.466 195.204 164.518 195.056L166.078 191.144C166.102 191.08 166.142 191.028 166.198 190.988C166.254 190.944 166.32 190.922 166.396 190.922H167.23ZM172.113 193.298C172.113 193.05 172.077 192.824 172.005 192.62C171.937 192.412 171.835 192.234 171.699 192.086C171.567 191.934 171.405 191.818 171.213 191.738C171.021 191.654 170.803 191.612 170.559 191.612C170.047 191.612 169.641 191.762 169.341 192.062C169.045 192.358 168.861 192.77 168.789 193.298H172.113ZM172.977 196.148C172.845 196.308 172.687 196.448 172.503 196.568C172.319 196.684 172.121 196.78 171.909 196.856C171.701 196.932 171.485 196.988 171.261 197.024C171.037 197.064 170.815 197.084 170.595 197.084C170.175 197.084 169.787 197.014 169.431 196.874C169.079 196.73 168.773 196.522 168.513 196.25C168.257 195.974 168.057 195.634 167.913 195.23C167.769 194.826 167.697 194.362 167.697 193.838C167.697 193.414 167.761 193.018 167.889 192.65C168.021 192.282 168.209 191.964 168.453 191.696C168.697 191.424 168.995 191.212 169.347 191.06C169.699 190.904 170.095 190.826 170.535 190.826C170.899 190.826 171.235 190.888 171.543 191.012C171.855 191.132 172.123 191.308 172.347 191.54C172.575 191.768 172.753 192.052 172.881 192.392C173.009 192.728 173.073 193.112 173.073 193.544C173.073 193.712 173.055 193.824 173.019 193.88C172.983 193.936 172.915 193.964 172.815 193.964H168.753C168.765 194.348 168.817 194.682 168.909 194.966C169.005 195.25 169.137 195.488 169.305 195.68C169.473 195.868 169.673 196.01 169.905 196.106C170.137 196.198 170.397 196.244 170.685 196.244C170.953 196.244 171.183 196.214 171.375 196.154C171.571 196.09 171.739 196.022 171.879 195.95C172.019 195.878 172.135 195.812 172.227 195.752C172.323 195.688 172.405 195.656 172.473 195.656C172.561 195.656 172.629 195.69 172.677 195.758L172.977 196.148ZM175.399 192.14C175.591 191.724 175.827 191.4 176.107 191.168C176.387 190.932 176.729 190.814 177.133 190.814C177.261 190.814 177.383 190.828 177.499 190.856C177.619 190.884 177.725 190.928 177.817 190.988L177.739 191.786C177.715 191.886 177.655 191.936 177.559 191.936C177.503 191.936 177.421 191.924 177.313 191.9C177.205 191.876 177.083 191.864 176.947 191.864C176.755 191.864 176.583 191.892 176.431 191.948C176.283 192.004 176.149 192.088 176.029 192.2C175.913 192.308 175.807 192.444 175.711 192.608C175.619 192.768 175.535 192.952 175.459 193.16V197H174.385V190.922H174.997C175.113 190.922 175.193 190.944 175.237 190.988C175.281 191.032 175.311 191.108 175.327 191.216L175.399 192.14ZM182.261 191.924C182.213 192.012 182.139 192.056 182.039 192.056C181.979 192.056 181.911 192.034 181.835 191.99C181.759 191.946 181.665 191.898 181.553 191.846C181.445 191.79 181.315 191.74 181.163 191.696C181.011 191.648 180.831 191.624 180.623 191.624C180.443 191.624 180.281 191.648 180.137 191.696C179.993 191.74 179.869 191.802 179.765 191.882C179.665 191.962 179.587 192.056 179.531 192.164C179.479 192.268 179.453 192.382 179.453 192.506C179.453 192.662 179.497 192.792 179.585 192.896C179.677 193 179.797 193.09 179.945 193.166C180.093 193.242 180.261 193.31 180.449 193.37C180.637 193.426 180.829 193.488 181.025 193.556C181.225 193.62 181.419 193.692 181.607 193.772C181.795 193.852 181.963 193.952 182.111 194.072C182.259 194.192 182.377 194.34 182.465 194.516C182.557 194.688 182.603 194.896 182.603 195.14C182.603 195.42 182.553 195.68 182.453 195.92C182.353 196.156 182.205 196.362 182.009 196.538C181.813 196.71 181.573 196.846 181.289 196.946C181.005 197.046 180.677 197.096 180.305 197.096C179.881 197.096 179.497 197.028 179.153 196.892C178.809 196.752 178.517 196.574 178.277 196.358L178.529 195.95C178.561 195.898 178.599 195.858 178.643 195.83C178.687 195.802 178.743 195.788 178.811 195.788C178.883 195.788 178.959 195.816 179.039 195.872C179.119 195.928 179.215 195.99 179.327 196.058C179.443 196.126 179.583 196.188 179.747 196.244C179.911 196.3 180.115 196.328 180.359 196.328C180.567 196.328 180.749 196.302 180.905 196.25C181.061 196.194 181.191 196.12 181.295 196.028C181.399 195.936 181.475 195.83 181.523 195.71C181.575 195.59 181.601 195.462 181.601 195.326C181.601 195.158 181.555 195.02 181.463 194.912C181.375 194.8 181.257 194.706 181.109 194.63C180.961 194.55 180.791 194.482 180.599 194.426C180.411 194.366 180.217 194.304 180.017 194.24C179.821 194.176 179.627 194.104 179.435 194.024C179.247 193.94 179.079 193.836 178.931 193.712C178.783 193.588 178.663 193.436 178.571 193.256C178.483 193.072 178.439 192.85 178.439 192.59C178.439 192.358 178.487 192.136 178.583 191.924C178.679 191.708 178.819 191.52 179.003 191.36C179.187 191.196 179.413 191.066 179.681 190.97C179.949 190.874 180.255 190.826 180.599 190.826C180.999 190.826 181.357 190.89 181.673 191.018C181.993 191.142 182.269 191.314 182.501 191.534L182.261 191.924Z" fill="black"/>
<path d="M108.694 146.353C108.622 146.479 108.544 146.572 108.46 146.632C108.382 146.686 108.283 146.713 108.163 146.713C108.037 146.713 107.899 146.668 107.749 146.578C107.605 146.482 107.431 146.377 107.227 146.263C107.023 146.149 106.783 146.047 106.507 145.957C106.237 145.861 105.916 145.813 105.544 145.813C105.208 145.813 104.914 145.855 104.662 145.939C104.41 146.017 104.197 146.128 104.023 146.272C103.855 146.416 103.729 146.59 103.645 146.794C103.561 146.992 103.519 147.211 103.519 147.451C103.519 147.757 103.603 148.012 103.771 148.216C103.945 148.42 104.173 148.594 104.455 148.738C104.737 148.882 105.058 149.011 105.418 149.125C105.778 149.239 106.147 149.362 106.525 149.494C106.903 149.62 107.272 149.77 107.632 149.944C107.992 150.112 108.313 150.328 108.595 150.592C108.877 150.85 109.102 151.168 109.27 151.546C109.444 151.924 109.531 152.383 109.531 152.923C109.531 153.511 109.429 154.063 109.225 154.579C109.027 155.089 108.733 155.536 108.343 155.92C107.959 156.298 107.488 156.598 106.93 156.82C106.372 157.036 105.733 157.144 105.013 157.144C104.599 157.144 104.191 157.102 103.789 157.018C103.387 156.94 103 156.826 102.628 156.676C102.262 156.526 101.917 156.346 101.593 156.136C101.269 155.926 100.981 155.692 100.729 155.434L101.44 154.273C101.5 154.189 101.578 154.12 101.674 154.066C101.77 154.006 101.872 153.976 101.98 153.976C102.13 153.976 102.292 154.039 102.466 154.165C102.64 154.285 102.847 154.42 103.087 154.57C103.327 154.72 103.606 154.858 103.924 154.984C104.248 155.104 104.635 155.164 105.085 155.164C105.775 155.164 106.309 155.002 106.687 154.678C107.065 154.348 107.254 153.877 107.254 153.265C107.254 152.923 107.167 152.644 106.993 152.428C106.825 152.212 106.6 152.032 106.318 151.888C106.036 151.738 105.715 151.612 105.355 151.51C104.995 151.408 104.629 151.297 104.257 151.177C103.885 151.057 103.519 150.913 103.159 150.745C102.799 150.577 102.478 150.358 102.196 150.088C101.914 149.818 101.686 149.482 101.512 149.08C101.344 148.672 101.26 148.171 101.26 147.577C101.26 147.103 101.353 146.641 101.539 146.191C101.731 145.741 102.007 145.342 102.367 144.994C102.727 144.646 103.171 144.367 103.699 144.157C104.227 143.947 104.833 143.842 105.517 143.842C106.285 143.842 106.993 143.962 107.641 144.202C108.289 144.442 108.841 144.778 109.297 145.21L108.694 146.353ZM117.206 151.321C117.206 151.033 117.164 150.763 117.08 150.511C117.002 150.253 116.882 150.028 116.72 149.836C116.558 149.644 116.351 149.494 116.099 149.386C115.853 149.272 115.565 149.215 115.235 149.215C114.593 149.215 114.086 149.398 113.714 149.764C113.348 150.13 113.114 150.649 113.012 151.321H117.206ZM112.967 152.662C113.003 153.136 113.087 153.547 113.219 153.895C113.351 154.237 113.525 154.522 113.741 154.75C113.957 154.972 114.212 155.14 114.506 155.254C114.806 155.362 115.136 155.416 115.496 155.416C115.856 155.416 116.165 155.374 116.423 155.29C116.687 155.206 116.915 155.113 117.107 155.011C117.305 154.909 117.476 154.816 117.62 154.732C117.77 154.648 117.914 154.606 118.052 154.606C118.238 154.606 118.376 154.675 118.466 154.813L119.105 155.623C118.859 155.911 118.583 156.154 118.277 156.352C117.971 156.544 117.65 156.7 117.314 156.82C116.984 156.934 116.645 157.015 116.297 157.063C115.955 157.111 115.622 157.135 115.298 157.135C114.656 157.135 114.059 157.03 113.507 156.82C112.955 156.604 112.475 156.289 112.067 155.875C111.659 155.455 111.338 154.939 111.104 154.327C110.87 153.709 110.753 152.995 110.753 152.185C110.753 151.555 110.855 150.964 111.059 150.412C111.263 149.854 111.554 149.371 111.932 148.963C112.316 148.549 112.781 148.222 113.327 147.982C113.879 147.742 114.5 147.622 115.19 147.622C115.772 147.622 116.309 147.715 116.801 147.901C117.293 148.087 117.716 148.36 118.07 148.72C118.424 149.074 118.7 149.512 118.898 150.034C119.102 150.55 119.204 151.141 119.204 151.807C119.204 152.143 119.168 152.371 119.096 152.491C119.024 152.605 118.886 152.662 118.682 152.662H112.967ZM127.487 149.719C127.421 149.803 127.355 149.869 127.289 149.917C127.229 149.965 127.139 149.989 127.019 149.989C126.905 149.989 126.794 149.956 126.686 149.89C126.578 149.818 126.449 149.74 126.299 149.656C126.149 149.566 125.969 149.488 125.759 149.422C125.555 149.35 125.3 149.314 124.994 149.314C124.604 149.314 124.262 149.386 123.968 149.53C123.674 149.668 123.428 149.869 123.23 150.133C123.038 150.397 122.894 150.718 122.798 151.096C122.702 151.468 122.654 151.891 122.654 152.365C122.654 152.857 122.705 153.295 122.807 153.679C122.915 154.063 123.068 154.387 123.266 154.651C123.464 154.909 123.704 155.107 123.986 155.245C124.268 155.377 124.586 155.443 124.94 155.443C125.294 155.443 125.579 155.401 125.795 155.317C126.017 155.227 126.203 155.131 126.353 155.029C126.503 154.921 126.632 154.825 126.74 154.741C126.854 154.651 126.98 154.606 127.118 154.606C127.298 154.606 127.433 154.675 127.523 154.813L128.162 155.623C127.916 155.911 127.649 156.154 127.361 156.352C127.073 156.544 126.773 156.7 126.461 156.82C126.155 156.934 125.837 157.015 125.507 157.063C125.183 157.111 124.859 157.135 124.535 157.135C123.965 157.135 123.428 157.03 122.924 156.82C122.42 156.604 121.979 156.292 121.601 155.884C121.223 155.476 120.923 154.978 120.701 154.39C120.485 153.796 120.377 153.121 120.377 152.365C120.377 151.687 120.473 151.06 120.665 150.484C120.863 149.902 121.151 149.401 121.529 148.981C121.907 148.555 122.375 148.222 122.933 147.982C123.491 147.742 124.133 147.622 124.859 147.622C125.549 147.622 126.152 147.733 126.668 147.955C127.19 148.177 127.658 148.495 128.072 148.909L127.487 149.719ZM137.512 147.766V157H136.153C135.859 157 135.673 156.865 135.595 156.595L135.442 155.857C135.064 156.241 134.647 156.553 134.191 156.793C133.735 157.027 133.198 157.144 132.58 157.144C132.076 157.144 131.629 157.06 131.239 156.892C130.855 156.718 130.531 156.475 130.267 156.163C130.003 155.851 129.802 155.482 129.664 155.056C129.532 154.624 129.466 154.15 129.466 153.634V147.766H131.689V153.634C131.689 154.198 131.818 154.636 132.076 154.948C132.34 155.254 132.733 155.407 133.255 155.407C133.639 155.407 133.999 155.323 134.335 155.155C134.671 154.981 134.989 154.744 135.289 154.444V147.766H137.512ZM141.813 149.368C142.101 148.816 142.443 148.384 142.839 148.072C143.235 147.754 143.703 147.595 144.243 147.595C144.669 147.595 145.011 147.688 145.269 147.874L145.125 149.539C145.095 149.647 145.05 149.725 144.99 149.773C144.936 149.815 144.861 149.836 144.765 149.836C144.675 149.836 144.54 149.821 144.36 149.791C144.186 149.761 144.015 149.746 143.847 149.746C143.601 149.746 143.382 149.782 143.19 149.854C142.998 149.926 142.824 150.031 142.668 150.169C142.518 150.301 142.383 150.463 142.263 150.655C142.149 150.847 142.041 151.066 141.939 151.312V157H139.716V147.766H141.021C141.249 147.766 141.408 147.808 141.498 147.892C141.588 147.97 141.648 148.114 141.678 148.324L141.813 149.368ZM152.116 151.321C152.116 151.033 152.074 150.763 151.99 150.511C151.912 150.253 151.792 150.028 151.63 149.836C151.468 149.644 151.261 149.494 151.009 149.386C150.763 149.272 150.475 149.215 150.145 149.215C149.503 149.215 148.996 149.398 148.624 149.764C148.258 150.13 148.024 150.649 147.922 151.321H152.116ZM147.877 152.662C147.913 153.136 147.997 153.547 148.129 153.895C148.261 154.237 148.435 154.522 148.651 154.75C148.867 154.972 149.122 155.14 149.416 155.254C149.716 155.362 150.046 155.416 150.406 155.416C150.766 155.416 151.075 155.374 151.333 155.29C151.597 155.206 151.825 155.113 152.017 155.011C152.215 154.909 152.386 154.816 152.53 154.732C152.68 154.648 152.824 154.606 152.962 154.606C153.148 154.606 153.286 154.675 153.376 154.813L154.015 155.623C153.769 155.911 153.493 156.154 153.187 156.352C152.881 156.544 152.56 156.7 152.224 156.82C151.894 156.934 151.555 157.015 151.207 157.063C150.865 157.111 150.532 157.135 150.208 157.135C149.566 157.135 148.969 157.03 148.417 156.82C147.865 156.604 147.385 156.289 146.977 155.875C146.569 155.455 146.248 154.939 146.014 154.327C145.78 153.709 145.663 152.995 145.663 152.185C145.663 151.555 145.765 150.964 145.969 150.412C146.173 149.854 146.464 149.371 146.842 148.963C147.226 148.549 147.691 148.222 148.237 147.982C148.789 147.742 149.41 147.622 150.1 147.622C150.682 147.622 151.219 147.715 151.711 147.901C152.203 148.087 152.626 148.36 152.98 148.72C153.334 149.074 153.61 149.512 153.808 150.034C154.012 150.55 154.114 151.141 154.114 151.807C154.114 152.143 154.078 152.371 154.006 152.491C153.934 152.605 153.796 152.662 153.592 152.662H147.877Z" fill="#101010"/>
<path fill-rule="evenodd" clip-rule="evenodd" d="M127.973 68.4869L149.874 75.9506C150.409 76.1375 150.848 76.7498 150.835 77.317V108.409C150.835 108.983 150.467 109.73 150.023 110.079L127.806 127.391C127.587 127.565 127.29 127.655 126.994 127.655C126.697 127.655 126.407 127.565 126.181 127.391L103.964 110.079C103.52 109.724 103.152 108.976 103.152 108.409V77.317C103.152 76.7498 103.591 76.1311 104.126 75.9506L126.027 68.4869C126.291 68.3967 126.646 68.3516 127 68.3516C127.354 68.3516 127.709 68.3967 127.973 68.4869ZM127 122.138L146.207 107.172V79.6115L127 73.0631L107.793 79.6115V107.172L127 122.138Z" fill="#ED4C5C"/>
<path fill-rule="evenodd" clip-rule="evenodd" d="M119.968 99.0828L114.973 104.078C114.877 104.175 114.823 104.306 114.823 104.442C114.823 104.578 114.877 104.709 114.973 104.806L117.164 106.998C117.364 107.197 117.693 107.197 117.893 106.998L122.888 102.003C126.478 104.265 131.273 103.833 134.399 100.707C138.028 97.0783 138.028 91.2002 134.399 87.5715C130.771 83.9428 124.892 83.9428 121.264 87.5715C118.138 90.6975 117.706 95.4992 119.968 99.0828ZM131.479 90.4912C129.469 88.4738 126.201 88.4738 124.183 90.4912C122.166 92.5086 122.172 95.7699 124.183 97.7873C126.194 99.8047 129.462 99.8047 131.479 97.7873C133.497 95.7764 133.497 92.5086 131.479 90.4912Z" fill="#ED4C5C"/>
</svg>
